<svg width="34" height="42" viewBox="0 0 34 40" fill="none" xmlns="http://www.w3.org/2000/svg">
<path d="M5.69706 39.2C4.69383 39.2 3.85684 38.8646 3.18608 38.1938C2.51533 37.5231 2.17923 36.6861 2.17777 35.6829V30.9898H0V28.812H2.17777V20.6889H0V18.5111H2.17777V10.388H0V8.21023H2.17777V3.51712C2.17777 2.5139 2.51388 1.67618 3.18608 1.00397C3.85829 0.331766 4.69528 -0.00288497 5.69706 1.87335e-05H29.1495C30.1513 1.87335e-05 30.9883 0.335396 31.6605 1.00615C32.3327 1.67691 32.6681 2.5139 32.6666 3.51712V35.6829C32.6666 36.6846 32.3312 37.5209 31.6605 38.1917C30.9897 38.8624 30.152 39.1985 29.1473 39.2H5.69706ZM5.69706 37.0222H29.1495C29.5401 37.0222 29.8609 36.8966 30.1121 36.6454C30.3633 36.3943 30.4888 36.0734 30.4888 35.6829V3.51712C30.4888 3.12658 30.3633 2.80572 30.1121 2.55455C29.8609 2.30338 29.5401 2.17779 29.1495 2.17779H5.69488C5.30433 2.17779 4.98347 2.30338 4.7323 2.55455C4.48113 2.80572 4.35555 3.1273 4.35555 3.5193V8.20805H6.53332V10.3858H4.35555V18.5111H6.53332V20.6889H4.35555V28.812H6.53332V30.9898H4.35555V35.6829C4.35555 36.0734 4.48113 36.3943 4.7323 36.6454C4.98347 36.8966 5.30506 37.0222 5.69706 37.0222ZM13.4848 29.8181H15.4121V21.1506C16.2716 20.9517 17.0033 20.5248 17.6073 19.87C18.2098 19.2153 18.5111 18.4538 18.5111 17.5855V9.38187H16.8342V17.4353H15.288V9.38187H13.6111V17.4353H12.0627V9.38187H10.3858V17.5855C10.3858 18.4538 10.6878 19.2153 11.2918 19.87C11.8943 20.5248 12.6253 20.9517 13.4848 21.1506V29.8181ZM23.6201 29.8181H25.5475V9.42325C24.0666 9.56263 22.8311 10.1978 21.8409 11.3288C20.8493 12.4598 20.3535 13.765 20.3535 15.2444V21.107H23.6201V29.8181Z" fill="#FFFCEB"/>
</svg>
