<svg width="45" height="45" viewBox="0 0 45 45" fill="none" xmlns="http://www.w3.org/2000/svg">
<path d="M40.3281 28.7856C40.3281 22.3609 35.0716 21.6378 30.8441 21.0538C26.2411 20.4141 23.6406 19.8578 23.6406 15.8945C23.6406 12.5709 27.1311 11.3889 30.107 11.3889C33.3333 11.3889 35.8642 12.5848 37.8528 15.0463L40.0222 13.2941C37.9084 10.6797 35.2106 9.16391 31.9844 8.73281V4.42188H29.2031V8.62156C24.1691 8.9275 20.8594 11.7644 20.8594 15.8806C20.8594 22.4583 26.1855 23.1953 30.4686 23.7933C34.9881 24.4191 37.5469 24.9614 37.5469 28.7717C37.5469 32.9853 33.1942 33.6111 30.5938 33.6111C25.8239 33.6111 23.8075 32.2761 21.9441 29.9538L19.7747 31.7059C22.2361 34.7514 24.9617 36.1142 29.2031 36.3506V40.5781H31.9844V36.3506C37.1714 35.9334 40.3281 33.1105 40.3281 28.7856ZM4.17188 15.5469H15.2969V18.3281H4.17188V15.5469ZM4.17188 26.6719H15.2969V29.4531H4.17188V26.6719ZM6.95312 21.1094H18.0781V23.8906H6.95312V21.1094Z" fill="#8ABAB1"/>
</svg>
