<svg width="40" height="42" viewBox="0 0 40 40" fill="none" xmlns="http://www.w3.org/2000/svg">
<path d="M20.4915 15.0242C19.4656 14.9229 18.4335 15.1411 17.5364 15.6491C16.6394 16.157 15.9213 16.9298 15.4804 17.8616C15.0395 18.7935 14.8974 19.8388 15.0736 20.8545C15.2498 21.8702 15.7356 22.8066 16.4645 23.5355C17.1935 24.2645 18.1299 24.7503 19.1456 24.9265C20.1613 25.1026 21.2066 24.9605 22.1384 24.5197C23.0703 24.0788 23.8431 23.3607 24.351 22.4636C24.8589 21.5666 25.0772 20.5345 24.9759 19.5086C24.8603 18.3586 24.3508 17.2839 23.5335 16.4666C22.7162 15.6493 21.6415 15.1397 20.4915 15.0242ZM32.5305 20C32.5274 20.5435 32.4875 21.0861 32.411 21.6242L35.943 24.3945C36.0968 24.522 36.2005 24.6999 36.2355 24.8966C36.2706 25.0933 36.2348 25.296 36.1345 25.4688L32.793 31.25C32.6916 31.4211 32.533 31.5509 32.3452 31.6165C32.1574 31.6821 31.9524 31.6793 31.7665 31.6086L28.2587 30.1961C28.0652 30.1191 27.8557 30.0912 27.6489 30.1151C27.442 30.139 27.2443 30.2138 27.0735 30.3328C26.5382 30.7015 25.9756 31.029 25.3907 31.3125C25.2068 31.4019 25.0478 31.5352 24.9276 31.7006C24.8074 31.866 24.7298 32.0584 24.7016 32.2609L24.1759 36.0023C24.1413 36.1999 24.0392 36.3794 23.8871 36.5101C23.7349 36.6407 23.542 36.7145 23.3415 36.7188H16.6587C16.4614 36.7153 16.2712 36.6448 16.1194 36.5189C15.9676 36.3929 15.8633 36.219 15.8235 36.0258L15.2985 32.2898C15.269 32.0851 15.1894 31.8908 15.0667 31.7243C14.9441 31.5577 14.7822 31.424 14.5954 31.3352C14.0111 31.0532 13.4505 30.7248 12.9188 30.3531C12.7486 30.2347 12.5516 30.1604 12.3455 30.1371C12.1394 30.1138 11.9308 30.1421 11.7384 30.2195L8.23132 31.6313C8.04547 31.702 7.84061 31.7049 7.65281 31.6395C7.46502 31.574 7.30636 31.4444 7.20476 31.2734L3.86335 25.4922C3.7629 25.3195 3.727 25.1167 3.76205 24.92C3.7971 24.7233 3.90083 24.5454 4.05476 24.418L7.03992 22.0742C7.20346 21.9444 7.33199 21.7758 7.41385 21.5837C7.49571 21.3916 7.5283 21.1821 7.50867 20.9742C7.48054 20.6484 7.46335 20.3234 7.46335 19.9977C7.46335 19.6719 7.47976 19.3516 7.50867 19.0328C7.52615 18.8262 7.49197 18.6185 7.40918 18.4284C7.3264 18.2382 7.19762 18.0717 7.03445 17.9437L4.05085 15.6C3.89942 15.4719 3.79788 15.2947 3.76402 15.0993C3.73017 14.9039 3.76616 14.7028 3.8657 14.5312L7.2071 8.75C7.30858 8.5789 7.46719 8.44911 7.65499 8.38351C7.8428 8.3179 8.04773 8.3207 8.23367 8.39141L11.7415 9.80391C11.9349 9.88093 12.1444 9.90875 12.3513 9.88489C12.5581 9.86103 12.7558 9.78623 12.9266 9.66719C13.462 9.29854 14.0245 8.97104 14.6094 8.6875C14.7933 8.59812 14.9524 8.46485 15.0726 8.29944C15.1927 8.13403 15.2703 7.94157 15.2985 7.73906L15.8243 3.99766C15.8588 3.80006 15.9609 3.6206 16.1131 3.48993C16.2653 3.35926 16.4581 3.2855 16.6587 3.28125H23.3415C23.5387 3.28466 23.7289 3.35516 23.8807 3.48112C24.0325 3.60708 24.1369 3.781 24.1766 3.97422L24.7016 7.71016C24.7311 7.9149 24.8107 8.10918 24.9334 8.27573C25.0561 8.44229 25.218 8.57595 25.4048 8.66484C25.989 8.94675 26.5497 9.27515 27.0813 9.64688C27.2516 9.76532 27.4486 9.83955 27.6547 9.86287C27.8608 9.8862 28.0694 9.85788 28.2618 9.78047L31.7688 8.36875C31.9547 8.29798 32.1595 8.29506 32.3473 8.36052C32.5351 8.42597 32.6938 8.5556 32.7954 8.72656L36.1368 14.5078C36.2373 14.6805 36.2732 14.8833 36.2381 15.08C36.2031 15.2767 36.0993 15.4546 35.9454 15.582L32.9602 17.9258C32.796 18.0552 32.6667 18.2236 32.5841 18.4157C32.5016 18.6078 32.4684 18.8176 32.4876 19.0258C32.5134 19.3492 32.5305 19.6742 32.5305 20Z" stroke="#FFFCEB" stroke-width="2.02381" stroke-linecap="round" stroke-linejoin="round"/>
</svg>
