<svg width="19" height="19" viewBox="0 0 19 19" fill="none" xmlns="http://www.w3.org/2000/svg">
<g clip-path="url(#clip0_1157_502)">
<path d="M8.90625 0C9.72884 0 10.5174 0.105143 11.272 0.31543C12.0265 0.525716 12.7378 0.822591 13.4058 1.20605C14.0737 1.58952 14.6737 2.05339 15.2056 2.59766C15.7375 3.14193 16.2013 3.74495 16.5972 4.40674C16.993 5.06852 17.293 5.77669 17.4971 6.53125C17.7012 7.28581 17.8063 8.07747 17.8125 8.90625C17.8125 9.72884 17.7074 10.5174 17.4971 11.272C17.2868 12.0265 16.9899 12.7378 16.6064 13.4058C16.223 14.0737 15.7591 14.6737 15.2148 15.2056C14.6706 15.7375 14.0675 16.2013 13.4058 16.5972C12.744 16.993 12.0358 17.293 11.2812 17.4971C10.5267 17.7012 9.73503 17.8063 8.90625 17.8125C8.08366 17.8125 7.29508 17.7074 6.54053 17.4971C5.78597 17.2868 5.07471 16.9899 4.40674 16.6064C3.73877 16.223 3.13883 15.7591 2.60693 15.2148C2.07503 14.6706 1.61117 14.0675 1.21533 13.4058C0.819499 12.744 0.519531 12.0358 0.31543 11.2812C0.111328 10.5267 0.0061849 9.73503 0 8.90625C0 8.08366 0.105143 7.29508 0.31543 6.54053C0.525716 5.78597 0.822591 5.07471 1.20605 4.40674C1.58952 3.73877 2.05339 3.13883 2.59766 2.60693C3.14193 2.07503 3.74495 1.61117 4.40674 1.21533C5.06852 0.819499 5.77669 0.519531 6.53125 0.31543C7.28581 0.111328 8.07747 0.0061849 8.90625 0ZM8.90625 16.625C9.61751 16.625 10.3009 16.5322 10.9565 16.3467C11.6121 16.1611 12.2244 15.9014 12.7935 15.5674C13.3625 15.2334 13.8851 14.8314 14.3613 14.3613C14.8376 13.8913 15.2396 13.3717 15.5674 12.8027C15.8952 12.2337 16.1549 11.6183 16.3467 10.9565C16.5384 10.2948 16.6312 9.61133 16.625 8.90625C16.625 8.19499 16.5322 7.51156 16.3467 6.85596C16.1611 6.20036 15.9014 5.58805 15.5674 5.01904C15.2334 4.45003 14.8314 3.92741 14.3613 3.45117C13.8913 2.97493 13.3717 2.57292 12.8027 2.24512C12.2337 1.91732 11.6183 1.65755 10.9565 1.46582C10.2948 1.27409 9.61133 1.18132 8.90625 1.1875C8.19499 1.1875 7.51156 1.28027 6.85596 1.46582C6.20036 1.65137 5.58805 1.91113 5.01904 2.24512C4.45003 2.5791 3.92741 2.98112 3.45117 3.45117C2.97493 3.92122 2.57292 4.44076 2.24512 5.00977C1.91732 5.57878 1.65755 6.19417 1.46582 6.85596C1.27409 7.51774 1.18132 8.20117 1.1875 8.90625C1.1875 9.61751 1.28027 10.3009 1.46582 10.9565C1.65137 11.6121 1.91113 12.2244 2.24512 12.7935C2.5791 13.3625 2.98112 13.8851 3.45117 14.3613C3.92122 14.8376 4.44076 15.2396 5.00977 15.5674C5.57878 15.8952 6.19417 16.1549 6.85596 16.3467C7.51774 16.5384 8.20117 16.6312 8.90625 16.625ZM9.5 8.3125H14.25V9.5H9.5V14.25H8.3125V9.5H3.5625V8.3125H8.3125V3.5625H9.5V8.3125Z" fill="#FFFCEB"/>
</g>
<defs>
<clipPath id="clip0_1157_502">
<rect width="19" height="19" fill="white"/>
</clipPath>
</defs>
</svg>
