<svg width="24" height="24" viewBox="0 0 24 24" fill="none" xmlns="http://www.w3.org/2000/svg">
<path d="M9.21415 2.35713C9.05643 2.35713 8.90929 2.3777 8.77272 2.41884C8.64088 2.20018 8.45391 2.01999 8.23051 1.89634C8.00712 1.77268 7.75516 1.70989 7.49986 1.71427C7.24434 1.70983 6.99214 1.77267 6.76858 1.89649C6.54502 2.02031 6.35795 2.20075 6.22615 2.4197C6.08308 2.37766 5.93468 2.35659 5.78558 2.35713C5.02272 2.35713 4.50758 2.86713 4.34215 3.45084C4.25259 3.43626 4.16202 3.42881 4.07129 3.42856C3.13529 3.42856 2.57129 4.19656 2.57129 4.92856V10.0714C2.57129 10.6063 2.80615 11.2594 3.05129 11.8174C3.30843 12.4037 3.62986 12.996 3.88872 13.4477C4.08966 13.7926 4.37826 14.0783 4.72525 14.2756C5.07224 14.473 5.46526 14.575 5.86443 14.5714H7.26843C7.64062 14.5715 8.00754 14.4835 8.33918 14.3146C8.67081 14.1456 8.95772 13.9006 9.17643 13.5994L9.689 12.8923C10.1159 12.3047 10.6076 11.7671 11.1547 11.2894L11.9733 10.5763L13.4459 9.52199C13.5288 9.46252 13.5964 9.38416 13.6431 9.29339C13.6897 9.20262 13.7141 9.10204 13.7141 8.99999C13.7141 7.7417 12.773 6.85713 11.5747 6.85713C11.2805 6.85838 10.9885 6.90849 10.7107 7.00541V3.85713C10.7107 3.12856 10.1536 2.35713 9.21415 2.35713ZM7.28558 3.21256C7.28558 3.15856 7.30786 3.10113 7.34558 3.05998C7.37472 3.02827 7.41929 2.99998 7.49986 2.99998C7.58043 2.99998 7.625 3.02827 7.65415 3.05998C7.69209 3.10182 7.71343 3.15608 7.71415 3.21256V7.07141C7.71415 7.24191 7.78188 7.40542 7.90244 7.52598C8.02299 7.64654 8.18651 7.71427 8.357 7.71427C8.5275 7.71427 8.69101 7.64654 8.81157 7.52598C8.93213 7.40542 8.99986 7.24191 8.99986 7.07141V3.85713C8.99986 3.80056 9.023 3.74227 9.05986 3.70284C9.08815 3.67113 9.13272 3.64284 9.21415 3.64284C9.29558 3.64284 9.33758 3.67027 9.36586 3.70198C9.40341 3.74502 9.42438 3.80002 9.425 3.85713V8.13427C9.42504 8.257 9.46021 8.37715 9.52635 8.48053C9.59249 8.58391 9.68684 8.6662 9.79826 8.71767C9.90967 8.76914 10.0335 8.78764 10.1551 8.77099C10.2767 8.75434 10.391 8.70323 10.4844 8.6237L10.5101 8.60141C10.6404 8.4857 11.0287 8.1437 11.5747 8.1437C11.9776 8.1437 12.2793 8.34941 12.3864 8.69999L11.2001 9.54856L11.1521 9.58713L10.3104 10.3208C9.69 10.8623 9.13249 11.4718 8.64843 12.138L8.13586 12.8434C8.03648 12.9804 7.90606 13.0919 7.75529 13.1688C7.60452 13.2457 7.43767 13.2857 7.26843 13.2857H5.86443C5.49586 13.2857 5.17186 13.1006 5.00386 12.8074C4.71928 12.3187 4.46036 11.8154 4.22815 11.2997C3.98558 10.7443 3.857 10.3114 3.857 10.0714V4.92856C3.8573 4.87149 3.87867 4.81654 3.917 4.77427C3.94615 4.74256 3.99072 4.71427 4.07129 4.71427C4.15186 4.71427 4.19643 4.74256 4.22557 4.77427C4.26391 4.81654 4.28528 4.87149 4.28558 4.92856V7.49999C4.28558 7.67048 4.3533 7.834 4.47386 7.95455C4.59442 8.07511 4.75794 8.14284 4.92843 8.14284C5.09893 8.14284 5.26244 8.07511 5.383 7.95455C5.50356 7.834 5.57129 7.67048 5.57129 7.49999V3.85713C5.57129 3.80056 5.59443 3.74227 5.63129 3.70284C5.65958 3.67113 5.70415 3.64284 5.78558 3.64284C5.816 3.64124 5.84642 3.64615 5.8748 3.65723C5.90317 3.66832 5.92886 3.68533 5.95015 3.70713C5.98186 3.74141 5.99643 3.7817 5.99986 3.81256V7.07141C5.99986 7.24191 6.06759 7.40542 6.18815 7.52598C6.30871 7.64654 6.47222 7.71427 6.64272 7.71427C6.81321 7.71427 6.97673 7.64654 7.09729 7.52598C7.21785 7.40542 7.28558 7.24191 7.28558 7.07141V3.21256ZM14.9999 22.2857C13.1362 22.2856 11.3434 21.5713 9.99028 20.2898C8.63716 19.0083 7.82659 17.2569 7.72529 15.396C8.17939 15.3308 8.61427 15.1692 9.00072 14.922V15C9.0007 16.205 9.36348 17.382 10.0418 18.3779C10.7202 19.3738 11.6827 20.1423 12.804 20.5835C13.9253 21.0247 15.1534 21.118 16.3285 20.8513C17.5036 20.5847 18.5712 19.9704 19.3922 19.0884C20.2133 18.2065 20.7498 17.0978 20.9318 15.9067C21.1139 14.7155 20.9331 13.4972 20.413 12.4102C19.8929 11.3233 19.0575 10.4182 18.0158 9.81266C16.974 9.20715 15.774 8.92935 14.5721 9.01541V8.99999C14.5721 8.54399 14.4804 8.12141 14.315 7.74599C14.5407 7.72484 14.7693 7.71427 15.0007 7.71427C16.933 7.71427 18.7862 8.48187 20.1525 9.84821C21.5188 11.2145 22.2864 13.0677 22.2864 15C22.2864 16.9323 21.5188 18.7854 20.1525 20.1518C18.7862 21.5181 16.9322 22.2857 14.9999 22.2857ZM13.8221 13.7143C13.8221 13.97 13.7206 14.2153 13.5397 14.3961C13.3589 14.577 13.1136 14.6786 12.8579 14.6786C12.6021 14.6786 12.3568 14.577 12.176 14.3961C11.9952 14.2153 11.8936 13.97 11.8936 13.7143C11.8936 13.4585 11.9952 13.2133 12.176 13.0324C12.3568 12.8516 12.6021 12.75 12.8579 12.75C13.1136 12.75 13.3589 12.8516 13.5397 13.0324C13.7206 13.2133 13.8221 13.4585 13.8221 13.7143ZM17.1427 14.6743C17.3976 14.6743 17.642 14.573 17.8221 14.3928C18.0023 14.2126 18.1036 13.9683 18.1036 13.7134C18.1036 13.4586 18.0023 13.2142 17.8221 13.034C17.642 12.8538 17.3976 12.7526 17.1427 12.7526C16.8879 12.7526 16.6435 12.8538 16.4633 13.034C16.2831 13.2142 16.1819 13.4586 16.1819 13.7134C16.1819 13.9683 16.2831 14.2126 16.4633 14.3928C16.6435 14.573 16.8879 14.6743 17.1427 14.6743ZM12.7079 16.9346C12.5978 16.8043 12.4406 16.7231 12.2707 16.7088C12.1008 16.6945 11.9321 16.7482 11.8019 16.8583C11.6716 16.9683 11.5904 17.1256 11.5761 17.2955C11.5618 17.4654 11.6155 17.634 11.7256 17.7643C12.1274 18.2413 12.6287 18.6246 13.1943 18.8874C13.7599 19.1502 14.3762 19.2862 14.9999 19.2857C15.6235 19.2863 16.2397 19.1505 16.8053 18.8878C17.3709 18.6251 17.8722 18.242 18.2741 17.7651C18.3316 17.7011 18.3756 17.6262 18.4036 17.5449C18.4315 17.4635 18.4429 17.3774 18.437 17.2916C18.4311 17.2058 18.408 17.122 18.3691 17.0453C18.3303 16.9686 18.2764 16.9004 18.2107 16.8449C18.145 16.7894 18.0688 16.7476 17.9867 16.722C17.9046 16.6964 17.8182 16.6876 17.7326 16.6961C17.647 16.7045 17.5639 16.73 17.4884 16.7712C17.4128 16.8123 17.3463 16.8681 17.2927 16.9354C17.0115 17.2694 16.6606 17.5377 16.2647 17.7216C15.8687 17.9055 15.4373 18.0005 15.0007 18C14.564 18.0007 14.1324 17.9057 13.7363 17.7218C13.3402 17.5379 12.9892 17.2686 12.7079 16.9346Z" fill="#FFFCEB"/>
</svg>
