<svg width="16" height="16" viewBox="0 0 16 16" fill="none" xmlns="http://www.w3.org/2000/svg">
<path d="M12.5 2.01539C12.117 2.01539 11.742 2.16389 11.453 2.45289L6.5 7.39039L6.3905 7.49989L6.3595 7.65639L6.0155 9.40639L5.8595 10.1404L6.594 9.98439L8.344 9.64039L8.5 9.60939L8.6095 9.49989L13.547 4.54689C13.7539 4.33942 13.8948 4.07533 13.9519 3.78791C14.009 3.50049 13.9797 3.20261 13.8677 2.93181C13.7557 2.66102 13.5661 2.42944 13.3227 2.26626C13.0793 2.10309 12.793 2.01612 12.5 2.01539ZM12.5 2.98439C12.617 2.98439 12.7325 3.04439 12.844 3.15589C13.0665 3.37889 13.0665 3.62089 12.844 3.84339L8 8.68789L7.1405 8.85989L7.3125 8.00039L12.1565 3.15639C12.2675 3.04539 12.383 2.98439 12.5 2.98439ZM2 3.99989V13.9999H12V7.40589L11 8.40589V12.9999H3V4.99989H7.594L8.594 3.99989H2Z" fill="#00392F"/>
</svg>
