<svg width="26" height="26" viewBox="0 0 26 26" fill="none" xmlns="http://www.w3.org/2000/svg">
<g clip-path="url(#clip0_1388_602)">
<path d="M22.3334 7.66667C24.5467 7.66667 26.3334 9.45333 26.3334 11.6667V19.6667H21V25H5.00002V19.6667H-0.333313V11.6667C-0.333313 9.45333 1.45335 7.66667 3.66669 7.66667H5.00002V1H21V7.66667H22.3334ZM7.66669 3.66667V7.66667H18.3334V3.66667H7.66669ZM18.3334 22.3333V17H7.66669V22.3333H18.3334ZM21 17H23.6667V11.6667C23.6667 10.9333 23.0667 10.3333 22.3334 10.3333H3.66669C2.93335 10.3333 2.33335 10.9333 2.33335 11.6667V17H5.00002V14.3333H21V17ZM22.3334 12.3333C22.3334 13.0667 21.7334 13.6667 21 13.6667C20.2667 13.6667 19.6667 13.0667 19.6667 12.3333C19.6667 11.6 20.2667 11 21 11C21.7334 11 22.3334 11.6 22.3334 12.3333Z" fill="#004a3d"/>
</g>
<defs>
<clipPath id="clip0_1388_602">
<rect width="26" height="26" fill="white"/>
</clipPath>
</defs>
</svg>