<svg width="179" height="179" viewBox="0 0 179 179" fill="none" xmlns="http://www.w3.org/2000/svg">
<path d="M16.7812 103.782H162.219M154.015 103.782C154.015 68.1535 125.132 39.2673 89.5 39.2673C53.8678 39.2673 24.9854 68.1535 24.9854 103.782" stroke="#00392F" stroke-width="7.73" stroke-linecap="round" stroke-linejoin="round"/>
<path d="M62.6313 54.9382C55.9657 59.2866 50.4567 65.1896 46.5785 72.1392C42.7002 79.0889 40.569 86.8769 40.3681 94.8328M89.4999 39.2682V30.8403M93.0053 128.843C112.39 128.608 114.873 127.799 150.714 118.699C152.97 118.129 154.645 119.285 155.137 120.598C155.64 121.94 155.435 124.319 152.374 125.114C146.332 126.68 108.668 144.058 100.091 144.058C91.5137 144.058 66.5282 142.193 57.1307 142.193C47.7332 142.193 36.7695 148.16 36.7695 148.16C29.2366 141.149 24.4632 129.514 23.1953 116.91H116.275C120.116 116.91 121.347 122.279 118.065 123.771C113.199 125.983 104.939 128.843 93.0053 128.843Z" stroke="#00392F" stroke-width="7.73" stroke-linecap="round" stroke-linejoin="round"/>
</svg>
