<svg width="179" height="144" viewBox="0 0 179 144" fill="none" xmlns="http://www.w3.org/2000/svg">
<g clip-path="url(#clip0_1737_986)">
<path d="M149.633 11.4669C147.004 8.83784 147.004 4.58659 149.633 1.98549C152.262 -0.615601 156.513 -0.64357 159.114 1.98549L177.014 19.8855C178.273 21.1441 178.972 22.8502 178.972 24.6402C178.972 26.4302 178.273 28.1363 177.014 29.3949L159.114 47.2949C156.485 49.9239 152.234 49.9239 149.633 47.2949C147.032 44.6658 147.004 40.4146 149.633 37.8135L156.066 31.3806L107.4 31.3247C103.68 31.3247 100.688 28.3321 100.688 24.6122C100.688 20.8924 103.68 17.8997 107.4 17.8997H156.094L149.633 11.4669ZM29.3672 105.442L22.9344 111.875H71.6C75.3198 111.875 78.3125 114.867 78.3125 118.587C78.3125 122.307 75.3198 125.3 71.6 125.3H22.9064L29.3392 131.733C31.9683 134.362 31.9683 138.613 29.3392 141.214C26.7102 143.815 22.4589 143.843 19.8578 141.214L1.95781 123.342C0.699219 122.083 0 120.377 0 118.587C0 116.797 0.699219 115.091 1.95781 113.833L19.8578 95.9325C22.4869 93.3035 26.7381 93.3035 29.3392 95.9325C31.9403 98.5616 31.9683 102.813 29.3392 105.414L29.3672 105.442ZM26.85 17.8997H94.5064C93.4716 19.9135 92.8562 22.1789 92.8562 24.6122C92.8562 32.6392 99.373 39.156 107.4 39.156H140.235C139.117 43.9106 140.403 49.0849 144.095 52.8047C149.773 58.4824 158.974 58.4824 164.652 52.8047L170.05 47.4067V107.4C170.05 117.273 162.023 125.3 152.15 125.3H84.4936C85.5284 123.286 86.1437 121.02 86.1437 118.587C86.1437 110.56 79.627 104.043 71.6 104.043H38.7647C39.8834 99.2888 38.5969 94.1146 34.905 90.3947C29.2273 84.7171 20.0256 84.7171 14.348 90.3947L8.95 95.7927V35.7997C8.95 25.9267 16.977 17.8997 26.85 17.8997ZM44.75 35.7997H26.85V53.6997C36.723 53.6997 44.75 45.6727 44.75 35.7997ZM152.15 89.4997C142.277 89.4997 134.25 97.5267 134.25 107.4H152.15V89.4997ZM89.5 98.4497C96.6211 98.4497 103.45 95.6209 108.486 90.5855C113.521 85.5502 116.35 78.7208 116.35 71.5997C116.35 64.4786 113.521 57.6492 108.486 52.6139C103.45 47.5785 96.6211 44.7497 89.5 44.7497C82.3789 44.7497 75.5495 47.5785 70.5142 52.6139C65.4788 57.6492 62.65 64.4786 62.65 71.5997C62.65 78.7208 65.4788 85.5502 70.5142 90.5855C75.5495 95.6209 82.3789 98.4497 89.5 98.4497Z" fill="#00392F"/>
</g>
<defs>
<clipPath id="clip0_1737_986">
<rect width="179" height="143.2" fill="white"/>
</clipPath>
</defs>
</svg>
