<svg width="141" height="144" viewBox="0 0 141 144" fill="none" xmlns="http://www.w3.org/2000/svg">
<path d="M130.813 72.7212V133.096H10.0629V72.7212H130.813Z" stroke="#00392F" stroke-width="6.70833"/>
<path d="M70.4375 89.4922C73.9958 89.4922 77.4087 90.9058 79.9248 93.4219C82.4408 95.938 83.8545 99.3509 83.8545 102.909C83.8544 106.467 82.4406 109.879 79.9248 112.396C77.4087 114.912 73.9958 116.325 70.4375 116.325C66.8792 116.325 63.4663 114.912 60.9502 112.396C58.4344 109.879 57.0206 106.467 57.0205 102.909C57.0205 99.3509 58.4342 95.938 60.9502 93.4219C63.4663 90.9058 66.8792 89.4922 70.4375 89.4922ZM102.161 39.7256L103.601 41.7432L105.952 40.96L115.298 37.8457L124.939 66.0332H19.6436L84.1602 14.4941L102.161 39.7256Z" stroke="#00392F" stroke-width="6.70833"/>
<path d="M130.813 69.3874H129.632L117.403 33.6118L12.4373 69.3874L10.0625 69.3673M6.70837 69.3941H10.0625L84.8336 9.66309L103.731 36.161" stroke="#00392F" stroke-width="13.4167" stroke-linecap="square"/>
<path d="M87.2084 102.908C87.2084 107.356 85.4415 111.622 82.2964 114.767C79.1512 117.912 74.8855 119.679 70.4376 119.679C65.9897 119.679 61.724 117.912 58.5788 114.767C55.4337 111.622 53.6667 107.356 53.6667 102.908C53.6667 98.4604 55.4337 94.1947 58.5788 91.0495C61.724 87.9044 65.9897 86.1375 70.4376 86.1375C74.8855 86.1375 79.1512 87.9044 82.2964 91.0495C85.4415 94.1947 87.2084 98.4604 87.2084 102.908Z" stroke="#00392F" stroke-width="13.4167" stroke-linecap="square"/>
<path d="M134.167 69.3667V136.45H6.70837V69.3667H134.167Z" stroke="#00392F" stroke-width="13.4167" stroke-linecap="square"/>
<path d="M6.70837 69.3667H20.125C20.125 72.925 18.7115 76.3376 16.1954 78.8537C13.6793 81.3698 10.2667 82.7834 6.70837 82.7834V69.3667ZM134.167 69.3667H120.75C120.75 72.925 122.164 76.3376 124.68 78.8537C127.196 81.3698 130.608 82.7834 134.167 82.7834V69.3667ZM6.70837 136.45H20.1385C20.1402 134.686 19.794 132.939 19.1197 131.308C18.4454 129.678 17.4563 128.197 16.2088 126.95C14.9614 125.702 13.4801 124.713 11.8499 124.039C10.2197 123.364 8.47253 123.018 6.70837 123.02V136.45ZM134.167 136.45H120.75C120.75 132.892 122.164 129.479 124.68 126.963C127.196 124.447 130.608 123.033 134.167 123.033V136.45Z" stroke="#00392F" stroke-width="13.4167" stroke-linecap="square"/>
</svg>
