<svg width="32" height="32" viewBox="0 0 32 32" fill="none" xmlns="http://www.w3.org/2000/svg">
<path d="M10.6667 10.6666H9.03599C7.30266 10.6666 6.43732 10.6666 5.82266 11.0199C5.28132 11.3306 4.86532 11.8199 4.64799 12.4053C4.40132 13.0706 4.54266 13.9253 4.82799 15.6319V15.6346L6.07199 23.1013C6.28399 24.3679 6.38932 25.0013 6.70532 25.4773C6.98532 25.8959 7.37599 26.2266 7.83466 26.4333C8.35466 26.6666 8.99732 26.6666 10.2813 26.6666H21.7187C23.0027 26.6666 23.644 26.6666 24.1653 26.4333C24.624 26.2266 25.016 25.8959 25.2947 25.4773C25.6107 25.0013 25.716 24.3679 25.9267 23.1013L27.172 15.6346V15.6293C27.4573 13.9226 27.5987 13.0693 27.352 12.4053C27.1349 11.8205 26.7198 11.3303 26.1787 11.0199C25.564 10.6666 24.6973 10.6666 22.964 10.6666H21.3333M10.6667 10.6666H21.3333M10.6667 10.6666C10.6667 9.2521 11.2286 7.89554 12.2288 6.89535C13.2289 5.89515 14.5855 5.33325 16 5.33325C17.4145 5.33325 18.771 5.89515 19.7712 6.89535C20.7714 7.89554 21.3333 9.2521 21.3333 10.6666" stroke="#FFFCEE" stroke-width="2" stroke-linecap="round" stroke-linejoin="round"/>
</svg>
