<svg width="179" height="179" viewBox="0 0 179 179" fill="none" xmlns="http://www.w3.org/2000/svg">
<path d="M70.8542 108.146L108.146 70.8542M14.9167 67.1251C20.8509 67.1251 26.5421 69.4824 30.7382 73.6786C34.9343 77.8747 37.2917 83.5659 37.2917 89.5001C37.2917 95.4343 34.9343 101.125 30.7382 105.322C26.5421 109.518 20.8509 111.875 14.9167 111.875V126.792C14.9167 130.748 16.4883 134.542 19.2857 137.339C22.0831 140.137 25.8772 141.708 29.8334 141.708H149.167C153.123 141.708 156.917 140.137 159.714 137.339C162.512 134.542 164.083 130.748 164.083 126.792V111.875C158.149 111.875 152.458 109.518 148.262 105.322C144.066 101.125 141.708 95.4343 141.708 89.5001C141.708 83.5659 144.066 77.8747 148.262 73.6786C152.458 69.4824 158.149 67.1251 164.083 67.1251V52.2084C164.083 48.2523 162.512 44.4582 159.714 41.6607C156.917 38.8633 153.123 37.2917 149.167 37.2917H29.8334C25.8772 37.2917 22.0831 38.8633 19.2857 41.6607C16.4883 44.4582 14.9167 48.2523 14.9167 52.2084V67.1251Z" stroke="#002C24" stroke-width="7.73" stroke-linecap="round" stroke-linejoin="round"/>
</svg>
