<svg width="22" height="22" viewBox="0 0 22 22" fill="none" xmlns="http://www.w3.org/2000/svg">
<path d="M11.2703 8.26332C10.706 8.2076 10.1384 8.32763 9.645 8.60699C9.15163 8.88636 8.75666 9.31139 8.51418 9.8239C8.2717 10.3364 8.19356 10.9113 8.29045 11.47C8.38734 12.0286 8.65454 12.5436 9.05545 12.9445C9.45636 13.3455 9.9714 13.6127 10.53 13.7096C11.0887 13.8064 11.6636 13.7283 12.1761 13.4858C12.6886 13.2433 13.1136 12.8484 13.393 12.355C13.6724 11.8616 13.7924 11.294 13.7367 10.7297C13.6732 10.0972 13.3929 9.50612 12.9434 9.05662C12.4939 8.60711 11.9028 8.32685 11.2703 8.26332ZM17.8918 11C17.89 11.2989 17.8681 11.5974 17.826 11.8933L19.7686 13.417C19.8532 13.4871 19.9102 13.5849 19.9295 13.6931C19.9488 13.8013 19.9291 13.9128 19.8739 14.0078L18.0361 17.1875C17.9803 17.2816 17.8931 17.353 17.7898 17.3891C17.6865 17.4252 17.5738 17.4236 17.4715 17.3847L15.5422 16.6079C15.4358 16.5655 15.3206 16.5502 15.2068 16.5633C15.0931 16.5764 14.9843 16.6176 14.8904 16.683C14.5959 16.8858 14.2865 17.0659 13.9648 17.2219C13.8637 17.271 13.7762 17.3443 13.7101 17.4353C13.644 17.5263 13.6014 17.6321 13.5859 17.7435L13.2967 19.8013C13.2777 19.91 13.2215 20.0087 13.1378 20.0805C13.0541 20.1524 12.9481 20.193 12.8378 20.1953H9.16223C9.05375 20.1934 8.94915 20.1547 8.86565 20.0854C8.78216 20.0161 8.72475 19.9204 8.70289 19.8142L8.41414 17.7594C8.39793 17.6468 8.35414 17.54 8.28667 17.4483C8.21921 17.3567 8.13015 17.2832 8.02742 17.2343C7.70608 17.0793 7.39772 16.8987 7.10531 16.6942C7.01168 16.6291 6.90331 16.5882 6.78997 16.5754C6.67663 16.5626 6.56188 16.5782 6.45606 16.6207L4.52719 17.3972C4.42497 17.4361 4.31229 17.4377 4.20901 17.4017C4.10572 17.3657 4.01846 17.2944 3.96258 17.2004L2.12481 14.0207C2.06955 13.9257 2.04981 13.8142 2.06909 13.706C2.08836 13.5978 2.14541 13.5 2.23008 13.4299L3.87191 12.1408C3.96186 12.0694 4.03256 11.9767 4.07758 11.871C4.1226 11.7654 4.14053 11.6502 4.12973 11.5358C4.11426 11.3566 4.10481 11.1779 4.10481 10.9987C4.10481 10.8195 4.11383 10.6434 4.12973 10.468C4.13935 10.3544 4.12054 10.2402 4.07501 10.1356C4.02948 10.031 3.95865 9.93944 3.86891 9.86906L2.22793 8.58C2.14464 8.50957 2.08879 8.41208 2.07017 8.3046C2.05155 8.19713 2.07135 8.08653 2.12609 7.99219L3.96387 4.8125C4.01968 4.71839 4.10692 4.64701 4.21021 4.61093C4.3135 4.57485 4.42621 4.57639 4.52848 4.61527L6.45777 5.39215C6.56417 5.43451 6.67941 5.44981 6.79317 5.43669C6.90693 5.42357 7.01566 5.38243 7.10961 5.31695C7.40406 5.1142 7.71346 4.93407 8.03516 4.77812C8.1363 4.72897 8.22377 4.65567 8.28987 4.56469C8.35597 4.47371 8.39865 4.36786 8.41414 4.25648L8.70332 2.19871C8.72231 2.09003 8.77846 1.99133 8.86216 1.91946C8.94587 1.84759 9.05193 1.80702 9.16223 1.80469H12.8378C12.9463 1.80656 13.0509 1.84534 13.1344 1.91462C13.2178 1.9839 13.2753 2.07955 13.2971 2.18582L13.5859 4.24059C13.6021 4.35319 13.6459 4.46005 13.7133 4.55165C13.7808 4.64326 13.8699 4.71677 13.9726 4.76566C14.2939 4.92071 14.6023 5.10133 14.8947 5.30578C14.9883 5.37093 15.0967 5.41175 15.21 5.42458C15.3234 5.43741 15.4381 5.42183 15.5439 5.37926L17.4728 4.60281C17.575 4.56389 17.6877 4.56228 17.791 4.59828C17.8943 4.63428 17.9815 4.70558 18.0374 4.79961L19.8752 7.9793C19.9304 8.0743 19.9502 8.18582 19.9309 8.29401C19.9116 8.40221 19.8546 8.50005 19.7699 8.57012L18.1281 9.85918C18.0377 9.93035 17.9666 10.023 17.9212 10.1286C17.8758 10.2343 17.8576 10.3497 17.8681 10.4642C17.8823 10.6421 17.8918 10.8208 17.8918 11Z" stroke="#00392F" stroke-width="1.1131" stroke-linecap="round" stroke-linejoin="round"/>
</svg>
