<svg width="34" height="34" viewBox="0 0 34 34" fill="none" xmlns="http://www.w3.org/2000/svg">
<g clip-path="url(#clip0_144_43)">
<path d="M1.27026 32.7346C1.2881 31.224 1.68652 29.7422 2.42869 28.4263C3.21178 27.0571 4.34059 25.9175 5.70225 25.1214C7.06391 24.3253 8.6107 23.9006 10.188 23.8898C13.3694 23.897 16.3808 25.6553 17.9473 28.4263C18.689 29.7415 19.0875 31.2224 19.1057 32.7322M24.0114 3.35862V1.36719M30.809 5.80419L32.4386 4.66033M17.209 5.80419L15.577 4.66033M10.1855 19.6568C10.7874 19.6707 11.386 19.5642 11.9461 19.3436C12.5062 19.1229 13.0165 18.7925 13.4471 18.3717C13.8777 17.951 14.2199 17.4485 14.4535 16.8936C14.6871 16.3388 14.8074 15.7428 14.8074 15.1408C14.8074 14.5388 14.6871 13.9429 14.4535 13.388C14.2199 12.8332 13.8777 12.3306 13.4471 11.9099C13.0165 11.4892 12.5062 11.1588 11.9461 10.9381C11.386 10.7174 10.7874 10.6109 10.1855 10.6249C9.00598 10.6523 7.88394 11.1401 7.05936 11.984C6.23479 12.8279 5.77314 13.9609 5.77314 15.1408C5.77314 16.3207 6.23479 17.4538 7.05936 18.2977C7.88394 19.1416 9.00598 19.6294 10.1855 19.6568ZM28.9487 12.2836C28.9446 11.6264 28.8107 10.9764 28.5547 10.371C28.2987 9.76569 27.9256 9.21686 27.4569 8.75608C26.9882 8.29529 26.4332 7.93161 25.8235 7.68594C25.2139 7.44026 24.5618 7.31742 23.9046 7.32447C23.2476 7.34485 22.6011 7.4948 22.0022 7.76571C21.4034 8.03663 20.8639 8.42317 20.4149 8.90314C19.9658 9.38311 19.616 9.94706 19.3855 10.5626C19.155 11.1782 19.0483 11.8332 19.0717 12.49C19.1201 13.3684 19.3981 14.2187 19.8779 14.9559C20.3578 15.6932 21.0227 16.2916 21.8063 16.6915V19.12C21.8107 19.2629 21.8704 19.3984 21.9727 19.4981C22.0751 19.5977 22.2122 19.6538 22.3551 19.6543H25.6604C25.8037 19.6544 25.9414 19.5987 26.0443 19.4989C26.1472 19.3992 26.2073 19.2633 26.2117 19.12V16.6478C27.0196 16.2352 27.7008 15.6117 28.1831 14.8434C28.6653 14.075 28.9283 13.1905 28.9487 12.2836Z" stroke="white" stroke-width="2.42857" stroke-linecap="round" stroke-linejoin="round"/>
</g>
<defs>
<clipPath id="clip0_144_43">
<rect width="34" height="34" fill="white"/>
</clipPath>
</defs>
</svg>
