<svg width="121" height="128" viewBox="0 0 121 128" fill="none" xmlns="http://www.w3.org/2000/svg">
<rect width="121" height="128" rx="6" fill="#00392F" fill-opacity="0.51"/>
<path d="M37.1666 77.125V52.3333H34.2499V49.4167H37.1666V46.5H34.2499V43.5833H37.1666V40.6667H34.2499V37.75H51.7499C53.2083 37.8375 54.5208 38.45 55.6583 39.5875C56.7958 40.725 57.4374 42.125 57.5833 43.5833H86.7499V46.5H57.5833C57.4374 48.0458 56.7958 49.4167 55.6583 50.6708C54.5208 51.925 53.2083 52.4792 51.7499 52.3333H45.9166V72.8958C46.0624 72.8958 46.2958 72.8667 46.6166 72.75C46.9374 72.6333 47.1999 72.75 47.3749 72.75C49.0083 72.75 50.8749 73.1583 52.9749 73.975C54.1708 71.2917 56.2124 68.9 59.1291 66.9167C62.0457 64.9333 64.9624 64 67.8791 64C72.3416 64 76.1332 65.5458 79.2249 68.6375C82.3166 71.7292 83.8332 75.5208 83.8332 80.0417V80.8292C83.8332 81.2083 83.7457 81.4125 83.7457 81.5H34.6583C35.0374 80.0417 35.8541 78.5833 37.1666 77.125ZM42.9999 73.4208V52.3333H40.0833V74.7917C41.5416 74.0625 42.4458 73.625 42.9999 73.4208ZM51.7499 49.4167V46.5H45.9166V49.4167H51.7499ZM51.7499 40.6667H45.9166V43.5833H51.7499V40.6667ZM40.0833 40.6667V43.5833H42.9999V40.6667H40.0833ZM40.0833 46.5V49.4167H42.9999V46.5H40.0833ZM31.3333 84.4167H89.6666L83.8332 90.25H37.1666L31.3333 84.4167Z" fill="white" fill-opacity="0.99"/>
</svg>
