<svg width="269" height="231" viewBox="0 0 169 131" fill="none" xmlns="http://www.w3.org/2000/svg">
<rect width="169" height="131" rx="12" fill="#002C24"/>
<path d="M61.5625 62.4792H65.1042V66.0208H61.5625V62.4792ZM75.7292 51.8542H79.2708V58.9375H75.7292V51.8542ZM72.1875 62.4792H79.2708V69.5625H75.7292V66.0208H72.1875V62.4792ZM82.8125 62.4792H86.3542V66.0208H89.8958V62.4792H93.4375V66.0208H89.8958V69.5625H93.4375V76.6458H89.8958V80.1875H86.3542V76.6458H79.2708V80.1875H75.7292V73.1042H82.8125V69.5625H86.3542V66.0208H82.8125V62.4792ZM89.8958 76.6458V69.5625H86.3542V76.6458H89.8958ZM82.8125 48.3125H93.4375V58.9375H82.8125V48.3125ZM86.3542 51.8542V55.3958H89.8958V51.8542H86.3542ZM61.5625 48.3125H72.1875V58.9375H61.5625V48.3125ZM65.1042 51.8542V55.3958H68.6458V51.8542H65.1042ZM61.5625 69.5625H72.1875V80.1875H61.5625V69.5625ZM65.1042 73.1042V76.6458H68.6458V73.1042H65.1042Z" fill="white"/>
<path d="M42.0835 89.5H112.917M45.6252 89.5L47.8245 98.301C48.2076 99.8334 49.0918 101.194 50.3367 102.166C51.5817 103.138 53.1158 103.666 54.6954 103.667H100.301C101.881 103.666 103.415 103.138 104.66 102.166C105.905 101.194 106.789 99.8334 107.172 98.301L109.375 89.5" stroke="white" stroke-width="4.25" stroke-linecap="round" stroke-linejoin="round"/>
<path d="M110.959 28.2072L113.276 25.5211L109.207 22.2C108.847 21.9064 108.622 21.4859 108.581 21.0308C108.54 20.5758 108.687 20.1236 108.988 19.7737C109.29 19.4238 109.723 19.2049 110.191 19.1651C110.658 19.1253 111.123 19.2678 111.483 19.5614L122.336 28.4176C122.695 28.7112 122.92 29.1318 122.961 29.5868C123.002 30.0418 122.856 30.494 122.554 30.8439C122.252 31.1938 121.819 31.4128 121.352 31.4526C120.884 31.4924 120.419 31.3498 120.059 31.0562L115.989 27.7351L113.672 30.4212C116.119 32.7258 118.051 35.4959 119.348 38.5589C120.645 41.6218 121.28 44.9119 121.211 48.2238C121.143 51.5358 120.374 54.7985 118.952 57.8086C117.53 60.8186 115.485 63.5114 112.946 65.7188L75.3424 35.0322C77.1367 32.2165 79.5083 29.7906 82.3094 27.9058C85.1104 26.021 88.2807 24.7177 91.6226 24.0774C94.9644 23.437 98.4061 23.4732 101.733 24.1837C105.06 24.8943 108.2 26.2639 110.959 28.2072ZM80.1421 34.4526L112.699 61.0212C114.493 58.9421 115.848 56.5399 116.687 53.9515C117.526 51.3631 117.833 48.6393 117.59 45.9357C117.346 43.232 116.558 40.6014 115.27 38.1941C113.981 35.7868 112.217 33.6498 110.08 31.9053C107.942 30.1608 105.472 28.8429 102.811 28.0268C100.149 27.2106 97.3484 26.9123 94.5685 27.1489C91.7885 27.3854 89.0837 28.1522 86.6084 29.4053C84.1331 30.6585 81.9358 32.3736 80.1421 34.4526Z" fill="white"/>
</svg>
