<svg width="34" height="42" viewBox="0 0 33 34" fill="none" xmlns="http://www.w3.org/2000/svg">
<path d="M24.5135 29.0162L29.7202 23.8902L28.5725 22.7407L24.5135 26.7428L22.7627 24.9553L21.6132 26.114L24.5135 29.0162ZM5.07833 8.6735H24.2587V6.84017H5.0765L5.07833 8.6735ZM25.6667 33.2127C23.6243 33.2127 21.8918 32.5007 20.4692 31.0768C19.0453 29.6542 18.3333 27.9217 18.3333 25.8793C18.3333 23.837 19.0453 22.1039 20.4692 20.68C21.8931 19.2561 23.6255 18.5448 25.6667 18.546C27.7078 18.5472 29.4409 19.2586 30.866 20.68C32.2911 22.1014 33.0024 23.8345 33 25.8793C33 27.9204 32.2887 29.6529 30.866 31.0768C29.4409 32.5007 27.7078 33.2127 25.6667 33.2127ZM0 30.7432V2.96267C0 2.14133 0.288445 1.44222 0.865333 0.865333C1.44222 0.288445 2.14133 0 2.96267 0H26.3725C27.1914 0 27.8899 0.288445 28.468 0.865333C29.0449 1.44222 29.3333 2.14133 29.3333 2.96267V13.86C29.0351 13.75 28.7393 13.6559 28.446 13.5777C28.1514 13.4994 27.8361 13.4383 27.5 13.3943V2.96267C27.5 2.68033 27.3827 2.42122 27.148 2.18533C26.9133 1.94944 26.6542 1.83211 26.3707 1.83333H2.96267C2.68033 1.83333 2.42122 1.95067 2.18533 2.18533C1.94944 2.42 1.83211 2.67911 1.83333 2.96267V27.5917H13.464C13.5471 28.0928 13.6547 28.5829 13.7867 29.062C13.9199 29.5411 14.1051 29.9982 14.3422 30.4333L14.2798 30.4957L12.199 28.9813L9.73133 30.7432L7.26366 28.9813L4.796 30.7432L2.3265 28.9813L0 30.7432ZM5.07833 22.4932H13.7115C13.7799 22.157 13.8643 21.8423 13.9645 21.549C14.0647 21.2557 14.1821 20.9593 14.3165 20.6598H5.07833V22.4932ZM5.07833 15.5833H18.48C19.0789 15.1103 19.7206 14.7162 20.405 14.4008C21.0894 14.0843 21.8209 13.8673 22.5995 13.75H5.0765L5.07833 15.5833Z" fill="#FFFCEB"/>
</svg>
