<svg width="250" height="250" viewBox="0 0 250 250" fill="none" xmlns="http://www.w3.org/2000/svg">
<path d="M0 125V0H125H250V125V250H125H0V125ZM146.851 238.835C148.093 238.804 152.268 238.748 156.128 238.71C159.988 238.672 163.394 238.618 163.696 238.59C163.999 238.561 165.646 238.479 167.358 238.405C169.07 238.333 171.542 238.212 172.852 238.139C174.161 238.066 175.562 237.991 175.964 237.973C177.105 237.921 182.083 237.562 184.448 237.36C189.086 236.963 190.514 236.766 190.833 236.478C191.006 236.321 191.122 236.306 191.384 236.405C191.567 236.474 191.915 236.507 192.158 236.478C192.575 236.43 192.594 236.409 192.492 236.103C192.211 235.254 192.37 235.326 190.308 235.115C188.534 234.934 186.42 234.76 184.265 234.618C183.191 234.547 182.037 234.466 181.702 234.438C181.117 234.389 179.964 234.325 177.307 234.195C176.636 234.162 175.153 234.082 174.011 234.017C172.87 233.952 171.112 233.868 170.105 233.83C169.098 233.792 167.972 233.734 167.603 233.702C165.624 233.53 154.125 233.161 150.349 233.149C146.635 233.137 146.453 233.079 142.167 230.542C141.323 230.042 140.519 229.597 140.381 229.553C140.243 229.509 140.046 229.346 139.944 229.189C139.753 228.898 138.499 228.481 138.008 228.546C137.83 228.569 137.745 228.472 137.662 228.149C137.404 227.152 137.414 226.815 137.713 226.376C137.871 226.144 138.066 225.954 138.146 225.953C138.395 225.952 138.48 225.68 138.546 224.674L138.611 223.701L139.771 222.83C141.29 221.688 143.81 219.087 144.746 217.695C145.479 216.604 146.697 214.289 147.465 212.524C149.192 208.554 150.247 203.869 150.5 199.036C150.961 190.257 148.755 178.613 144.095 165.222C143.51 163.544 142.661 161.089 142.207 159.766C141.752 158.444 141.342 157.3 141.294 157.224C141.248 157.147 141.164 156.526 141.109 155.844C140.981 154.254 140.555 150.259 140.255 147.833C140.127 146.796 140.034 145.939 140.049 145.927C140.063 145.916 140.872 146.005 141.846 146.126C143.669 146.351 146.727 146.922 148.285 147.328L149.17 147.559L149.169 146.869C149.167 146.076 148.88 143.442 148.688 142.467C148.617 142.104 148.577 141.788 148.6 141.765C148.655 141.709 152.559 143.95 156.067 146.051C165.455 151.674 170.414 154.139 177.423 156.667C181.306 158.068 183.682 158.714 187.202 159.325C188.563 159.561 189.22 159.6 191.956 159.601C195.458 159.602 196.872 159.431 199.542 158.681C205.735 156.942 212.514 152.427 217.754 146.552C223.973 139.58 227.352 131.84 227.644 123.901C227.785 120.049 227.564 117.816 226.609 113.464C224.831 105.356 220.244 97.1982 212.871 89.033C208.276 83.9438 202.354 79.4988 198.584 78.3076C196.161 77.5425 194.649 77.6108 186.401 78.8586C183.061 79.364 180.609 79.6665 178.464 79.8384C175.993 80.0366 166.92 79.9238 164.551 79.666C163.577 79.5598 162.768 79.4719 162.753 79.4705C162.737 79.469 163.618 78.1357 164.71 76.5076C168.995 70.1206 171.874 64.8105 174.571 58.3208C175.673 55.668 176.019 54.7212 176.685 52.5288C179.224 44.1643 179.844 37.0454 178.639 30.0908C178.213 27.6338 176.924 24.5046 175.396 22.2192C171.924 17.0283 165.809 14.1624 158.203 14.1609C153.941 14.1602 149.939 14.8618 145.508 16.387C143.096 17.217 141.93 17.708 140.137 18.648C130.847 23.5171 123.25 30.4856 117.281 39.6118C114.865 43.3057 113.465 46.0571 112.218 49.5605C111.662 51.1213 111.091 53.3606 111.081 54.0161C111.076 54.3315 110.902 54.5215 109.828 55.3818C109.143 55.9316 107.895 56.9653 107.056 57.679C105.424 59.0662 99.5818 63.7729 98.2666 64.76C97.8301 65.0874 97.1985 65.5859 96.8628 65.8672C95.8081 66.7517 88.8174 72.0122 88.7656 71.9604C88.7383 71.9333 88.7915 71.3455 88.8833 70.654C88.9932 69.8259 89.0483 68.189 89.0449 65.8569C89.04 62.8513 89 62.0681 88.7778 60.6689C88.0962 56.3735 86.3442 52.489 83.9543 49.9729C82.9226 48.8867 81.5579 47.9524 81.396 48.2212C81.3364 48.3201 80.7886 49.3071 80.1782 50.415C78.4138 53.6174 75.8608 57.4595 74.1353 59.5093C73.7397 59.9792 72.814 61.0798 72.0779 61.9551C71.3418 62.8301 70.2178 64.1431 69.5801 64.8721C68.4407 66.1748 68.4189 66.1919 68.3433 65.8445C68.3008 65.6499 68.2598 65.2896 68.2517 65.0435C68.2329 64.4612 67.3479 59.8184 66.8828 57.8613C65.3345 51.3481 62.552 43.1558 58.3936 32.8662C56.2144 27.4739 55.6274 25.9897 55.2805 24.9939C55.1226 24.5408 54.9658 24.1702 54.9321 24.1704C54.7847 24.1719 48.7766 29.9204 44.8721 33.7954C39.2063 39.4185 36.8081 41.9819 33.5503 45.8984C26.3237 54.585 23.2986 62.8081 24.0522 71.7163C24.4307 76.1899 25.4915 79.8643 27.5903 83.9707C30.3735 89.4167 34.918 95.1733 39.5625 99.1362L40.9866 100.351L40.2571 101.659C38.0815 105.558 36.4229 109.005 35.3335 111.888C34.6768 113.626 33.5024 117.247 33.1592 118.591C31.3357 125.733 31.7222 133.203 34.271 140.076C37.1516 147.844 45.1899 157.433 56.0303 166.032C61.373 170.271 65.5366 173.234 69.3755 175.53C69.9678 175.885 70.4819 176.251 70.5181 176.345C70.5537 176.438 70.47 176.94 70.3315 177.46C70.1934 177.98 69.915 179.268 69.7134 180.322C68.2441 187.997 68.2261 194.264 69.6563 200.073C70.6875 204.263 72.7446 208.691 75.1855 211.975C76.7397 214.066 79.8699 217.091 81.0547 217.646C81.2896 217.756 81.8511 218.082 82.3022 218.37L83.1226 218.895L82.6074 219.633C81.9958 220.51 80.5674 222.05 80.5669 221.832C80.5657 221.375 79.0234 222.027 78.1128 222.87C77.3193 223.605 77.0879 223.985 76.458 225.585C75.7649 227.346 75.6128 227.11 78.8269 229.256C82.105 231.445 84.8389 233.395 84.8389 233.544C84.8389 233.73 84.4763 233.798 84.2935 233.646C84.1963 233.565 84.0696 233.529 84.0115 233.565C83.9534 233.601 82.0422 233.688 79.7642 233.76C77.4863 233.831 74.5789 233.942 73.3032 234.008C72.0276 234.073 70.3247 234.154 69.519 234.188C65.6968 234.349 65.1602 234.4 64.9329 234.628C64.7368 234.824 64.6973 234.827 64.5576 234.659C64.4375 234.514 64.2598 234.489 63.7866 234.547C63.4482 234.589 62.7869 234.654 62.3169 234.691C61.8469 234.729 61.3799 234.787 61.2793 234.821C61.1787 234.854 60.7939 234.898 60.4248 234.919C58.4966 235.025 54.6318 235.613 54.4019 235.836C54.1865 236.044 56.0601 236.489 59.021 236.932C61.2134 237.26 66.5393 237.679 70.8008 237.859C71.707 237.897 72.5767 237.955 72.7332 237.988C72.8897 238.02 73.9331 238.072 75.0525 238.102C76.1719 238.133 78.3508 238.211 79.895 238.276C81.4392 238.342 86.1084 238.482 90.271 238.588C94.4336 238.694 99.3225 238.828 101.135 238.885C104.366 238.987 142.407 238.945 146.851 238.835ZM180.054 222.718C188.407 221.331 195.929 216.679 200.159 210.286C204.046 204.41 204.406 196.648 201.09 190.158C199.234 186.524 195.844 182.557 190.674 177.97C185.409 173.299 176.31 166.877 170.715 163.885C170.111 163.562 169.397 163.173 169.128 163.021L168.64 162.745V167.951C168.64 173.401 168.53 175.241 167.961 179.321C167.151 185.135 165.512 190.792 163.277 195.496C159.848 202.709 154.126 209.175 148.894 211.747C148.373 212.003 147.964 212.269 147.985 212.338C148.053 212.56 151.49 214.798 153.503 215.932C157.24 218.036 161.951 220.149 165.222 221.189C167.873 222.032 171.202 222.725 173.462 222.903C175.248 223.044 178.669 222.948 180.054 222.718Z" fill="#549D7B" stroke="#549D7B" stroke-width="0.244141" stroke-linecap="round" stroke-linejoin="round"/>
<path d="M173.462 222.903C171.202 222.725 167.873 222.032 165.222 221.189C161.951 220.149 157.24 218.036 153.503 215.932C151.49 214.798 148.053 212.56 147.985 212.338C147.964 212.269 148.373 212.003 148.894 211.747C154.126 209.175 159.848 202.709 163.277 195.496C165.512 190.792 167.151 185.135 167.961 179.321C168.53 175.241 168.64 173.401 168.64 167.951V162.745L169.128 163.021C169.397 163.173 170.111 163.562 170.715 163.885C176.31 166.877 185.409 173.299 190.674 177.97C195.844 182.557 199.234 186.524 201.09 190.158C204.406 196.648 204.046 204.41 200.159 210.286C196.929 215.168 191.73 219.092 185.54 221.318C184.077 221.844 181.764 222.434 180.054 222.718C178.669 222.948 175.248 223.044 173.462 222.903Z" fill="#C6D9D3" stroke="#C6D9D3" stroke-width="0.244141" stroke-linecap="round" stroke-linejoin="round"/>
<path d="M128.418 159.707C125.191 159.375 117.915 157.975 112.366 156.618C108.787 155.743 104.367 154.539 103.638 154.24C102.552 153.794 94.8872 151.841 91.8709 151.241L91.1514 151.098L91.2329 149.615C91.4463 145.739 92.79 137.167 93.7529 133.545C93.8154 133.31 93.9739 132.651 94.1052 132.08C94.4729 130.482 94.8242 129.069 95.1365 127.93C95.293 127.359 95.626 126.123 95.8765 125.183C96.127 124.243 96.6631 122.321 97.0679 120.911C97.4727 119.501 97.9014 117.99 98.0205 117.554C98.1397 117.117 98.4043 116.238 98.6089 115.601C98.8135 114.963 99.0337 114.249 99.0981 114.014C99.7896 111.501 102.462 104.171 104.082 100.346C104.523 99.3027 105.373 97.4453 105.97 96.2178C106.567 94.99 107.056 93.9653 107.056 93.9402C107.056 93.6885 111.103 86.5532 111.941 85.3272C112.056 85.1592 112.669 84.2256 113.304 83.252C114.444 81.5044 117.402 77.7092 119.608 75.1655C120.943 73.6253 123.353 71.3296 124.4 70.6013C125.199 70.0447 125.283 70.0352 126.648 70.3457C126.984 70.4224 127.286 70.4912 127.319 70.4988C127.548 70.5508 129.752 71.7046 129.708 71.749C129.677 71.7798 129.815 72.0938 130.015 72.4473C130.87 73.9619 131.57 76.3945 132.756 81.9702C132.984 83.0444 133.225 84.1028 133.289 84.3223C133.354 84.5418 133.411 84.7615 133.415 84.8106C133.443 85.1157 133.594 85.885 133.792 86.731C133.917 87.2681 134.045 87.8447 134.075 88.0127C134.105 88.1807 134.277 89.032 134.457 89.9048C134.637 90.7776 134.811 91.6289 134.844 91.7969C134.876 91.9649 135.07 92.9536 135.274 93.9942C135.477 95.0347 135.722 96.2708 135.816 96.7407C135.912 97.2107 136.011 97.7051 136.038 97.8394C136.947 102.355 138.66 109.501 139.183 110.953C139.491 111.807 139.771 112.062 139.771 111.488C139.771 111.296 139.602 110.454 139.396 109.616C138.991 107.966 138.31 104.709 137.941 102.661C137.814 101.956 137.434 99.8672 137.096 98.0191C136.394 94.1819 136.065 92.0015 135.875 89.9048C135.508 85.8662 135.362 78.4639 135.651 78.5217C135.831 78.5576 135.899 78.8618 136.225 81.0547C136.726 84.4297 136.841 85.1631 136.962 85.7566C137.08 86.3316 137.274 87.3352 137.4 88.0152C137.431 88.1841 137.704 89.2827 138.006 90.4566C138.307 91.6301 138.694 93.167 138.864 93.8721C139.034 94.5772 139.505 96.2798 139.91 97.6563C140.316 99.0327 140.659 100.214 140.674 100.281C140.926 101.414 141.984 104.607 142.185 104.837C142.455 105.147 143.267 105.396 145.02 105.703C148.8 106.367 152.752 106.387 156.921 105.765C158.022 105.601 158.921 105.423 163.696 104.422C164.468 104.26 165.169 104.153 165.253 104.184C165.337 104.215 165.405 104.347 165.405 104.478C165.405 104.609 165.517 104.978 165.654 105.297C165.791 105.616 165.878 105.944 165.847 106.025C165.816 106.105 165.834 106.219 165.886 106.278C166.367 106.811 167.205 112.45 166.865 112.86C166.716 113.04 162.65 114.415 160.951 114.86C160.426 114.998 159.963 115.146 159.923 115.189C159.832 115.289 163.732 115.156 165.833 114.988C167.492 114.855 174.388 114.062 174.94 113.94C175.238 113.875 175.264 113.905 175.337 114.399C175.523 115.665 175.636 116.184 175.839 116.699C176.259 117.765 176.403 121.669 176.092 123.535C175.835 125.081 175.662 125.806 175.5 126.017C175.152 126.468 170.136 129.086 167.78 130.045C166.014 130.764 164.186 131.344 161.803 131.941C157.951 132.907 155.843 133.157 150.665 133.26C148.5 133.303 146.729 133.382 146.729 133.435C146.729 133.741 147.313 136.503 147.828 138.626C148.735 142.372 149.17 145.056 149.17 146.904V147.559L148.285 147.328C146.741 146.924 143.18 146.267 141.681 146.108C140.124 145.944 139.893 145.835 139.893 145.268C139.893 145.004 139.963 144.906 140.194 144.848C140.653 144.733 140.784 144.362 140.719 143.355L140.662 142.463L142.261 142.429L143.86 142.395L143.832 141.357C143.789 139.752 142.892 133.72 142.588 132.991C142.5 132.779 142.295 132.719 141.219 132.587C140.523 132.502 139.437 132.325 138.805 132.195C138.173 132.064 137.583 131.958 137.493 131.958C137.36 131.958 137.329 132.536 137.327 134.979C137.324 140.429 136.929 145.146 136.031 150.452C134.705 158.289 133.138 160.193 128.418 159.707Z" fill="#109F6D" stroke="#109F6D" stroke-width="0.244141" stroke-linecap="round" stroke-linejoin="round"/>
<path d="M69.3971 175.564C64.8004 172.711 61.3282 170.235 56.0304 166.032C45.19 157.433 37.1517 147.844 34.2711 140.076C33.481 137.946 32.7923 135.284 32.4105 132.886C31.8014 129.06 31.9137 124.559 32.7174 120.584C33.4337 117.042 35.0855 112.113 36.8126 108.364C39.6851 102.129 42.9188 96.8865 48.6876 89.1113C50.4871 86.686 53.8018 82.488 55.0494 81.0547C55.429 80.6182 56.6363 79.2175 57.732 77.9419C59.5616 75.8115 61.7828 73.3613 66.4205 68.3564C68.5113 66.1001 70.2569 64.1255 72.078 61.957C72.814 61.0808 73.7398 59.9792 74.1353 59.5093C75.8609 57.4595 78.4139 53.6174 80.1783 50.415C80.7887 49.3071 81.3365 48.3201 81.3961 48.2212C81.5579 47.9524 82.9227 48.8867 83.9544 49.9729C86.3451 52.4897 88.0982 56.3774 88.7772 60.6689C89.2472 63.6387 89.0916 71.7683 88.5567 72.2046C87.9054 72.7356 82.7262 76.9892 81.3599 78.1152C75.253 83.1479 68.4322 89.4023 64.7327 93.3616C60.6612 97.719 58.2525 101.013 57.0094 103.923C56.3668 105.427 56.1505 106.286 56.0684 107.666C55.9823 109.111 56.1822 109.987 56.9469 111.517C58.6927 115.011 64.6878 119.715 73.8526 124.782C78.9264 127.587 85.6012 130.603 89.7515 131.966L90.564 132.232L90.1239 133.041C89.8819 133.486 88.8765 135.306 87.8892 137.085C86.9024 138.864 85.8429 140.787 85.5348 141.357C85.2269 141.928 84.7215 142.862 84.4117 143.433C82.7852 146.429 78.151 156.028 76.721 159.363C74.4439 164.673 72.1268 171.018 70.981 175.079C70.7965 175.734 70.6119 176.264 70.5706 176.258C70.5294 176.251 70.0013 175.939 69.3971 175.564Z" fill="#134D45" stroke="#134D45" stroke-width="0.244141" stroke-linecap="round" stroke-linejoin="round"/>
<path d="M130.524 226.55C130.44 226.463 130.371 226.296 130.371 226.18C130.371 226.063 130.24 225.424 130.079 224.76C129.918 224.097 129.813 223.417 129.844 223.251C129.876 223.084 129.709 221.935 129.472 220.696C127.992 212.948 126.812 205.622 124.333 188.782C123.565 183.568 121.876 173.228 121.776 173.127C121.756 173.107 121.396 173.902 120.975 174.894C117.257 183.653 112.091 191.654 99.749 207.764C92.2168 217.596 89.9732 220.423 89.1817 221.082C88.9722 221.256 88.8923 221.258 88.4492 221.102C87.5332 220.779 86.6138 220.426 86.0596 220.184C85.7573 220.053 85.3455 219.873 85.1441 219.785C84.9426 219.698 84.4209 219.473 83.9844 219.286C82.9199 218.829 81.2976 217.77 81.3035 217.535C81.3062 217.431 81.6055 216.797 81.9685 216.125C82.9878 214.242 84.8215 210.493 85.8799 208.13C87.1724 205.244 93.0684 193.577 97.7393 184.662L99.3862 181.519L99.8032 179.413C100.347 176.67 100.783 173.819 101.62 167.542C103.388 154.276 103.398 154.214 103.651 154.282C103.744 154.307 104.865 154.625 106.14 154.989C113.859 157.193 125.125 159.513 129.251 159.749C131.194 159.86 132.272 159.496 133.345 158.365C134.934 156.689 135.942 152.632 136.901 144.043C137.002 143.137 137.085 142.354 137.085 142.303C137.085 142.253 137.622 142.212 138.277 142.212H139.47L139.753 144.196C140.445 149.048 141.023 154.329 141.245 157.81C141.343 159.354 141.367 163.149 141.323 170.139C141.261 179.925 141.097 185.172 140.627 192.444C140.558 193.518 140.446 195.331 140.378 196.472C139.749 207.126 138.854 220.626 138.72 221.477C138.68 221.734 138.61 222.79 138.564 223.824C138.518 224.889 138.425 225.76 138.351 225.834C138.186 225.999 137.094 226.156 134.521 226.383C130.73 226.718 130.687 226.72 130.524 226.55Z" fill="#252546" stroke="#252546" stroke-width="0.244141" stroke-linecap="round" stroke-linejoin="round"/>
<path d="M177.246 101.127C177.246 101.023 177.424 100.789 177.64 100.608C177.857 100.428 178.334 100.011 178.701 99.6812C179.342 99.1045 179.372 99.0918 179.485 99.3448C179.585 99.5691 179.509 99.7063 178.973 100.273C178.627 100.638 178.345 100.912 178.345 100.881C178.345 100.851 178.127 100.936 177.861 101.072C177.28 101.368 177.246 101.371 177.246 101.127Z" fill="#C6D9D3" stroke="#C6D9D3" stroke-width="0.244141" stroke-linecap="round" stroke-linejoin="round"/>
<path d="M111.694 226.552C107.598 226.265 100.401 224.944 96.4726 223.757C93.4213 222.836 89.4712 221.36 89.3896 221.112C89.3642 221.035 89.8571 220.376 90.4848 219.647C92.8171 216.941 104.702 201.358 108.766 195.679C111.037 192.505 114.343 187.499 116.023 184.692C117.549 182.144 119.729 177.829 120.975 174.894C121.396 173.902 121.756 173.107 121.776 173.127C121.876 173.227 123.565 183.568 124.333 188.782C126.483 203.387 127.916 212.402 129.07 218.567C129.233 219.44 129.491 220.82 129.643 221.634C129.795 222.449 129.889 223.197 129.851 223.297C129.756 223.543 127.018 224.537 125.063 225.036C122.207 225.765 116.034 226.695 114.235 226.667C113.61 226.658 112.466 226.605 111.694 226.552Z" fill="#ADC8BF" stroke="#ADC8BF" stroke-width="0.244141" stroke-linecap="round" stroke-linejoin="round"/>
<path d="M119.122 69.1449C118.001 68.9418 116.433 68.3857 115.493 67.8566C112.908 66.4013 111.337 64.1532 110.771 61.0961C110.526 59.7743 110.586 56.4804 110.874 55.4731C111.323 53.8969 112.315 52.4267 113.46 51.6391L113.972 51.2861L114.111 50.1489C114.443 47.4365 116.424 45.0961 119.265 44.059C122.781 42.7763 126.565 43.2717 129.488 45.3976C130.58 46.1923 131.078 46.7753 132.122 48.4872L132.323 48.8178L133.331 48.0905C134.464 47.2724 136.291 46.2983 137.392 45.924C139.987 45.0419 143.065 45.0805 145.996 46.0322C149.49 47.1669 152.319 49.1235 153.915 51.5097C155.227 53.4711 155.803 55.2721 155.809 57.434C155.814 59.1916 155.55 59.8622 154.606 60.4887C153.114 61.4784 152.458 61.4994 150.33 60.6254C147.825 59.5973 146.881 59.0927 146.366 58.5073C146.112 58.2192 145.876 57.9833 145.843 57.9833C145.809 57.9833 145.714 58.1469 145.631 58.3466C145.36 59.0002 144.471 59.6672 142.731 60.5207C141.808 60.9736 140.634 61.6259 140.123 61.9701L139.193 62.5964L139.127 61.2968C139.053 59.8503 138.828 59.0771 138.332 58.5541C137.551 57.7326 136.748 57.6332 135.57 58.2131C134.677 58.6525 133.789 59.5375 133.789 59.9877C133.789 60.153 133.745 60.3156 133.69 60.349C133.545 60.4394 133.631 61.62 133.833 62.2826C134.062 63.0395 134.831 64.0868 135.256 64.8193C135.254 64.976 134.891 65.0024 132.721 65.0024C131.328 65.0024 130.035 65.0282 129.847 65.06C129.622 65.0981 129.083 65.5351 128.26 66.3466C127.575 67.0224 126.81 67.7299 126.56 67.9184C125.026 69.0751 121.736 69.6178 119.122 69.1449Z" fill="#212242" stroke="#212242" stroke-width="0.244141" stroke-linecap="round" stroke-linejoin="round"/>
<path d="M102.051 238.892C100.742 238.843 98.4893 238.793 97.0459 238.782C94.708 238.764 94.448 238.742 94.6655 238.583C95.1865 238.201 95.4316 237.903 95.8162 237.181C96.3628 236.155 96.2891 235.797 95.3718 235.019C94.9937 234.698 94.323 234.094 93.8813 233.675L93.0786 232.915L93.689 232.91C94.0247 232.907 95.9746 232.854 98.0225 232.792C100.07 232.729 107.761 232.667 115.112 232.653C122.464 232.639 128.793 232.593 129.177 232.549L129.875 232.471L129.8 232.782C129.759 232.953 129.679 233.219 129.622 233.372C129.566 233.525 129.554 234.221 129.597 234.917C129.668 236.082 129.697 236.193 129.955 236.311C130.108 236.381 131.487 236.494 133.019 236.562C134.55 236.629 137.314 236.755 139.16 236.84C141.006 236.926 144.376 236.996 146.647 236.998L150.778 237L151.011 236.711C151.186 236.496 151.245 236.23 151.245 235.66C151.245 234.469 150.898 234.147 148.936 233.512C148.37 233.33 148.008 233.161 148.13 233.137C148.711 233.023 161.313 233.372 166.382 233.641C167.557 233.704 169.26 233.787 170.166 233.826C171.072 233.865 172.775 233.95 173.95 234.016C175.125 234.081 176.636 234.161 177.307 234.194C180.002 234.327 181.119 234.389 181.702 234.438C182.037 234.466 183.191 234.547 184.265 234.618C187.244 234.814 190.887 235.14 191.851 235.296C192.062 235.33 192.268 235.452 192.31 235.568C192.628 236.455 192.633 236.423 192.158 236.478C191.915 236.507 191.567 236.474 191.384 236.405C191.122 236.306 191.006 236.321 190.833 236.478C190.514 236.766 189.086 236.963 184.448 237.36C182.083 237.562 177.105 237.921 175.964 237.973C175.562 237.991 174.161 238.066 172.852 238.139C171.542 238.212 169.07 238.333 167.358 238.405C165.646 238.479 163.999 238.561 163.696 238.59C163.394 238.618 159.988 238.672 156.128 238.71C152.268 238.748 148.093 238.804 146.851 238.835C142.79 238.936 104.493 238.985 102.051 238.892Z" fill="#84A99F" stroke="#84A99F" stroke-width="0.244141" stroke-linecap="round" stroke-linejoin="round"/>
<path d="M166.582 108.917C166.549 108.8 166.486 108.456 166.443 108.154C166.353 107.521 166.031 106.434 165.888 106.278C165.835 106.219 165.816 106.105 165.847 106.025C165.878 105.944 165.791 105.616 165.654 105.297C165.268 104.396 165.304 104.295 166.09 104.066C166.467 103.956 167.014 103.853 167.305 103.836C167.919 103.8 169.329 102.922 170.96 101.561C172.712 100.098 174.926 98.7426 175.929 98.5182C176.246 98.4477 176.877 98.1493 177.333 97.8559C177.789 97.5622 178.513 97.1948 178.942 97.039C179.372 96.8832 179.884 96.6205 180.081 96.455C180.319 96.2548 180.641 96.1342 181.04 96.0961C181.575 96.0446 181.641 96.0644 181.641 96.2775C181.641 96.5976 181.514 96.706 181.325 96.5488C181.216 96.4584 181.023 96.4645 180.671 96.5698C180.017 96.766 179.857 96.9599 180.584 97.6349C180.776 97.8476 180.75 97.892 180.085 98.4831C179.116 99.3427 178.11 100.218 177.64 100.608C177.424 100.789 177.246 101.022 177.246 101.127C177.246 101.364 177.291 101.365 177.744 101.13C178.252 100.868 178.472 101.067 178.184 101.528C178.115 101.639 178.38 102.263 178.511 102.299C178.521 102.302 178.725 102.333 178.967 102.368C179.365 102.426 179.423 102.396 179.591 102.049C179.737 101.747 179.793 101.708 179.853 101.866C179.896 101.976 179.846 102.228 179.744 102.426C179.453 102.989 178.099 104.505 177.874 104.024C177.714 104.086 176.758 105.223 176.758 105.351C176.758 105.416 176.624 105.412 176.438 105.341C176.087 105.207 176.094 105.204 174.6 106.216C173.686 106.834 172.814 107.194 171.692 107.417C171.289 107.497 170.324 107.778 169.548 108.041C168.771 108.305 168.056 108.52 167.959 108.52C167.861 108.52 167.579 108.658 167.332 108.826C166.801 109.187 166.663 109.204 166.582 108.917Z" fill="#8A5130" stroke="#8A5130" stroke-width="0.244141" stroke-linecap="round" stroke-linejoin="round"/>
<path d="M94.1711 238.545C94.1074 238.489 93.7805 238.345 93.4448 238.225C92.2676 237.802 88.6909 235.935 87.0478 234.886C86.1352 234.304 84.592 233.254 83.6184 232.554C82.6448 231.854 80.5434 230.408 78.9489 229.341C75.5959 227.097 75.7632 227.35 76.458 225.585C77.0879 223.985 77.3193 223.605 78.1128 222.87C78.7871 222.246 79.8652 221.68 80.3794 221.68C80.4809 221.68 80.6303 221.959 80.751 222.375C81.1413 223.717 82.0754 224.682 83.3406 225.05C83.937 225.223 84.0818 225.222 84.9963 225.038C86.311 224.772 86.5996 224.628 86.6474 224.212C86.6687 224.028 86.707 223.877 86.7324 223.877C86.758 223.877 87.1111 224.072 87.5171 224.31C88.3364 224.79 88.7024 225.261 89.9282 227.417C92.9345 232.703 93.0176 232.834 93.8584 233.643C94.312 234.079 94.9926 234.698 95.3713 235.019C96.2822 235.791 96.3623 236.16 95.8322 237.143C95.3691 238.003 95.2422 238.17 94.852 238.439C94.5166 238.67 94.344 238.697 94.1711 238.545Z" fill="#E8EAEB" stroke="#E8EAEB" stroke-width="0.244141" stroke-linecap="round" stroke-linejoin="round"/>
<path d="M177.618 112.723C177.386 112.622 176.561 112.316 175.787 112.042C174.152 111.464 173.518 111.164 173.425 110.921C173.236 110.427 173.767 109.496 175.476 107.328C175.745 106.987 176.157 106.364 176.392 105.943C176.782 105.244 177.646 104.114 177.854 104.031C177.901 104.012 177.93 104.165 177.917 104.371C177.904 104.6 177.75 104.899 177.523 105.138C177.18 105.5 176.118 107.162 175.95 107.599C175.899 107.73 175.95 107.788 176.116 107.788C176.614 107.788 178.92 108.442 179.823 108.839C180.341 109.067 180.852 109.253 180.958 109.253C181.361 109.253 181.225 109.448 179.219 111.748C178.659 112.39 178.164 112.913 178.12 112.91C178.076 112.908 177.85 112.823 177.618 112.723Z" fill="black" stroke="black" stroke-width="0.244141" stroke-linecap="round" stroke-linejoin="round"/>
<path d="M83.1703 224.999C82.078 224.613 81.1918 223.73 80.83 222.668C80.6083 222.018 80.6554 221.831 81.1552 221.379C81.412 221.147 81.9452 220.516 82.3402 219.976C82.735 219.436 83.1225 218.994 83.2013 218.994C83.2802 218.994 83.6669 219.137 84.0609 219.311C84.4552 219.485 84.9565 219.705 85.1745 219.799C85.3925 219.894 85.7499 220.049 85.9679 220.144C87.1508 220.66 87.5631 220.819 88.184 221C88.5595 221.109 88.8671 221.233 88.8671 221.275C88.8671 221.41 88.226 222.204 87.4364 223.048C86.933 223.586 86.6698 223.969 86.6698 224.162C86.6698 224.556 86.5006 224.675 85.6322 224.895C84.3539 225.219 83.8544 225.24 83.1703 224.999Z" fill="#8A5130" stroke="#8A5130" stroke-width="0.244141" stroke-linecap="round" stroke-linejoin="round"/>
<path d="M176.259 119.476C176.16 118.063 176.011 117.124 175.798 116.579C175.655 116.21 175.537 115.777 175.537 115.616C175.537 115.456 175.473 115.111 175.396 114.851C175.318 114.591 175.281 114.351 175.314 114.318C175.347 114.285 175.796 114.222 176.312 114.179C177.363 114.09 177.122 114.276 178.743 112.305C179.157 111.801 179.818 111.04 180.211 110.612C180.605 110.185 180.99 109.69 181.067 109.513C181.308 108.96 182.131 108.06 182.453 107.999C182.713 107.949 182.75 107.978 182.695 108.188C182.617 108.488 182.899 109.072 183.172 109.177C183.815 109.424 184.448 109.124 184.448 108.574C184.448 108.336 184.502 108.286 184.723 108.32C185.077 108.374 185.069 108.462 184.649 109.164C184.256 109.82 184.316 110.026 184.938 110.15C185.411 110.245 186.659 109.776 186.738 109.473C186.77 109.352 186.852 109.253 186.92 109.253C186.988 109.253 187.315 109.058 187.647 108.819C187.98 108.581 188.383 108.335 188.544 108.274C188.705 108.213 188.911 107.982 189.003 107.762C189.237 107.204 189.503 107.011 189.901 107.111C190.242 107.197 191.162 108.029 191.162 108.253C191.162 108.323 191.033 108.535 190.875 108.725C190.717 108.915 190.434 109.317 190.245 109.619C190.057 109.921 189.802 110.24 189.678 110.328C189.535 110.429 189.453 110.639 189.453 110.9C189.453 111.46 189.27 111.899 188.793 112.484C188.572 112.755 188.273 113.244 188.128 113.572C187.984 113.899 187.676 114.378 187.444 114.634C187.212 114.891 186.911 115.319 186.776 115.585C186.241 116.634 183.927 117.689 181.094 118.179C179.701 118.419 179.097 118.606 177.429 119.313C176.616 119.658 176.275 119.705 176.259 119.476Z" fill="#8A5130" stroke="#8A5130" stroke-width="0.244141" stroke-linecap="round" stroke-linejoin="round"/>
<path d="M80.4542 217.272C79.4747 216.618 76.8846 214.124 75.8436 212.832C74.5645 211.245 73.4952 209.547 72.3819 207.336C68.4356 199.5 67.6211 191.252 69.7134 180.322C70.9236 173.999 74.189 164.734 78.4551 155.518C79.7247 152.775 83.5167 145.081 84.4117 143.433C84.7215 142.862 85.2269 141.928 85.5347 141.357C85.8428 140.787 86.9024 138.864 87.8892 137.085C88.8765 135.306 89.8819 133.486 90.1238 133.041L90.564 132.232L89.7515 131.966C81.4942 129.255 68.9283 122.585 62.6832 117.598C59.4969 115.054 57.8326 113.289 56.9468 111.517C56.1822 109.987 55.9822 109.111 56.0684 107.666C56.1504 106.286 56.3667 105.427 57.0093 103.923C58.2525 101.013 60.6612 97.7189 64.7327 93.3615C70.5152 87.173 81.9017 77.2687 92.3338 69.3532C94.4891 67.7177 96.5272 66.1494 96.8628 65.8676C97.1985 65.5859 97.8301 65.0873 98.2667 64.76C99.5818 63.7729 105.424 59.0661 107.056 57.6789C107.895 56.9653 109.143 55.9316 109.828 55.3818C110.902 54.5214 111.076 54.3315 111.081 54.0161C111.096 52.9926 112.122 49.5468 113.097 47.2412C115.789 40.8745 121.661 32.7831 127.258 27.7253C131.591 23.8105 135.373 21.145 140.137 18.6479C141.93 17.708 143.096 17.217 145.508 16.3869C156.988 12.4355 167.623 13.7661 173.496 19.8886C174.115 20.5339 174.97 21.5827 175.396 22.2192C176.924 24.5046 178.213 27.6337 178.639 30.0908C179.844 37.0454 179.224 44.1643 176.685 52.5288C176.019 54.7211 175.673 55.6679 174.571 58.3207C171.874 64.8105 168.995 70.1205 164.711 76.5075C163.618 78.1357 162.737 79.4689 162.753 79.4704C162.768 79.4719 163.577 79.5598 164.551 79.666C166.92 79.9238 175.993 80.0366 178.464 79.8383C180.609 79.6664 183.061 79.364 186.401 78.8586C194.649 77.6108 196.161 77.5424 198.584 78.3076C202.355 79.4987 208.276 83.9438 212.871 89.0329C220.244 97.1982 224.831 105.356 226.609 113.464C227.564 117.816 227.785 120.049 227.644 123.901C227.396 130.655 224.957 137.187 220.407 143.282C216.599 148.384 212.306 152.263 206.968 155.425C203.509 157.475 200.379 158.661 196.693 159.322C195.325 159.567 194.733 159.602 191.956 159.601C189.22 159.6 188.564 159.561 187.202 159.325C183.682 158.714 181.306 158.068 177.423 156.667C170.285 154.092 165.644 151.774 155.494 145.713C153.634 144.603 151.312 143.242 150.334 142.69C149.097 141.992 148.537 141.608 148.495 141.43C148.462 141.289 148.165 140.048 147.834 138.672C147.313 136.502 146.729 133.736 146.729 133.435C146.729 133.382 148.5 133.303 150.665 133.26C155.843 133.157 157.951 132.907 161.803 131.941C164.186 131.344 166.014 130.764 167.78 130.045C170.136 129.086 175.152 126.468 175.5 126.017C175.84 125.574 176.265 122.851 176.268 121.094L176.27 119.69L176.911 119.487C177.263 119.375 178.018 119.091 178.589 118.855C179.244 118.584 180.167 118.334 181.091 118.176C183.918 117.694 186.24 116.636 186.776 115.585C186.911 115.319 187.212 114.891 187.444 114.634C187.676 114.378 187.984 113.899 188.128 113.572C188.273 113.244 188.572 112.755 188.793 112.484C189.27 111.899 189.453 111.46 189.453 110.9C189.453 110.64 189.536 110.428 189.676 110.328C189.799 110.24 190.1 109.866 190.345 109.497C190.59 109.128 190.882 108.699 190.995 108.545C191.189 108.279 191.187 108.246 190.957 107.934C190.606 107.46 189.961 107.056 189.557 107.056C189.366 107.056 189.209 107.02 189.209 106.976C189.209 106.932 189.691 106.397 190.279 105.786C190.868 105.175 191.876 103.989 192.52 103.149C194.227 100.924 196.545 97.4362 196.618 96.9841C196.698 96.4907 196.394 95.8852 195.951 95.6577C195.768 95.5634 194.849 95.2097 193.909 94.8715C192.969 94.5336 191.211 93.8881 190.002 93.4374C186.635 92.1811 186.162 92.1816 185.605 93.4406C185.44 93.8122 185.25 94.1162 185.182 94.1162C185.114 94.1162 185.059 94.1992 185.059 94.301C185.059 94.4028 184.94 94.6672 184.794 94.8891C184.541 95.2758 184.316 95.3974 182.922 95.8998C182.646 95.9997 182.204 96.3261 181.903 96.6525C181.605 96.9765 181.408 97.122 181.454 96.9848C181.499 96.8505 181.568 96.582 181.607 96.3876L181.678 96.0346L181.059 96.0942C180.641 96.1342 180.322 96.2519 180.081 96.455C179.884 96.6205 179.372 96.8832 178.942 97.039C178.513 97.1948 177.789 97.5622 177.333 97.8559C176.878 98.1494 176.246 98.4477 175.929 98.5183C174.923 98.7431 172.709 100.1 170.95 101.57C169.577 102.717 167.731 103.912 167.445 103.837C167.319 103.804 166.812 103.883 166.319 104.012C165.826 104.141 165.35 104.22 165.261 104.187C165.173 104.154 164.468 104.26 163.696 104.422C158.921 105.423 158.022 105.601 156.921 105.765C152.752 106.387 148.8 106.367 145.02 105.703C143.267 105.396 142.455 105.147 142.185 104.837C141.984 104.607 140.926 101.414 140.674 100.281C140.659 100.214 140.316 99.0327 139.91 97.6562C139.505 96.2797 139.034 94.5771 138.864 93.872C138.694 93.1669 138.307 91.6301 138.006 90.4565C137.704 89.2827 137.431 88.184 137.4 88.0151C137.274 87.3351 137.08 86.3315 136.962 85.7565C136.825 85.0839 136.566 83.4113 136.283 81.3598C136.006 79.3505 135.749 78.1992 135.552 78.0893C135.326 77.9626 135.324 77.2861 135.55 77.0361C135.645 76.9301 135.761 76.6926 135.807 76.5082C135.876 76.2299 135.817 76.1005 135.46 75.7426C135.069 75.3525 134.982 75.3188 134.547 75.3886L134.065 75.4653L134.166 74.8286C134.273 74.155 134.747 73.0434 135.305 72.1596L135.641 71.6274L136.199 72.4653C136.899 73.5165 138.118 74.9914 138.824 75.6418C139.357 76.1332 140.499 76.6601 141.031 76.6601C143.495 76.6601 147.095 73.0942 149.35 68.4204C150.591 65.8481 151.433 63.4706 151.675 61.852L151.761 61.2792H152.342C153.073 61.2792 153.794 61.0273 154.606 60.4887C155.55 59.8622 155.814 59.1916 155.809 57.434C155.796 53.0078 153.051 49.1782 148.285 46.9394C144.504 45.163 140.68 44.8066 137.392 45.924C136.291 46.2983 134.464 47.2724 133.331 48.0905L132.323 48.8178L132.122 48.4872C131.078 46.7753 130.58 46.1923 129.488 45.3977C126.565 43.2717 122.781 42.7763 119.265 44.059C116.424 45.0961 114.443 47.4365 114.111 50.1489L113.972 51.2861L113.46 51.6391C112.315 52.4267 111.322 53.8989 110.874 55.4731C110.58 56.5058 110.525 59.7021 110.776 61.0986C111.502 65.1323 114.158 67.8911 118.358 68.9745C120.938 69.6401 124.255 69.2988 126.18 68.1704C126.475 67.998 127.357 67.2299 128.14 66.4638C128.923 65.6977 129.579 65.0849 129.597 65.1027C129.614 65.1206 129.553 65.4623 129.459 65.8622C129.231 66.8413 128.578 68.331 127.854 69.5258L127.258 70.5087L126.77 70.3676C126.502 70.29 126.021 70.1975 125.702 70.1623C125.171 70.1037 125.061 70.1415 124.391 70.6071C123.352 71.3303 120.939 73.6301 119.608 75.1655C117.402 77.7092 114.444 81.5043 113.304 83.2519C112.669 84.2255 112.056 85.1591 111.941 85.3271C111.103 86.5532 107.056 93.6884 107.056 93.9401C107.056 93.9653 106.567 94.9899 105.97 96.2177C105.373 97.4453 104.523 99.3027 104.082 100.346C102.462 104.171 99.7896 111.501 99.0982 114.014C99.0337 114.248 98.8135 114.963 98.6089 115.601C98.4044 116.238 98.1397 117.117 98.0206 117.554C97.9014 117.99 97.4727 119.501 97.0679 120.911C96.6631 122.32 96.127 124.243 95.8765 125.183C95.626 126.123 95.293 127.359 95.1365 127.93C94.8243 129.069 94.4729 130.482 94.1053 132.08C93.9739 132.651 93.8155 133.31 93.753 133.545C92.7901 137.167 91.4463 145.739 91.233 149.615L91.1514 151.098L91.8709 151.242C94.076 151.681 96.771 152.332 99.9146 153.186C103.335 154.115 103.453 154.157 103.419 154.436C103.4 154.594 103.305 155.218 103.209 155.823C103.112 156.427 102.869 158.157 102.669 159.668C100.759 174.062 100.474 176.03 99.8033 179.413L99.3863 181.519L97.7393 184.662C93.0684 193.577 87.1724 205.244 85.8799 208.13C84.8121 210.514 82.9458 214.329 82.0276 216.003C81.6963 216.608 81.3821 217.257 81.3292 217.447L81.2332 217.792L80.4542 217.272Z" fill="#C6D9D3" stroke="#C6D9D3" stroke-width="0.244141" stroke-linecap="round" stroke-linejoin="round"/>
<path d="M138.321 142.243L137.055 142.203L137.13 141.567C137.171 141.217 137.241 138.912 137.286 136.444C137.346 133.104 137.403 131.958 137.511 131.958C137.591 131.958 138.173 132.064 138.805 132.195C139.437 132.325 140.523 132.502 141.219 132.587C142.295 132.719 142.5 132.779 142.588 132.991C142.844 133.603 143.704 139.156 143.87 141.266L143.955 142.334L141.771 142.308C140.57 142.294 139.018 142.265 138.321 142.243Z" fill="#E2E6E6" stroke="#E2E6E6" stroke-width="0.244141" stroke-linecap="round" stroke-linejoin="round"/>
<path d="M179.806 108.836C178.925 108.444 176.617 107.788 176.116 107.788C175.818 107.788 175.854 107.687 176.592 106.47C176.905 105.953 177.661 104.963 178.272 104.271C178.883 103.579 179.511 102.797 179.668 102.534L179.954 102.055L179.689 101.625C179.543 101.39 179.359 101.188 178.65 100.985C178.419 100.852 178.437 100.813 178.998 100.24C179.432 99.7979 179.571 99.574 179.516 99.4021C179.413 99.0757 182.277 96.1499 182.946 95.8984C184.397 95.3535 184.542 95.2744 184.795 94.8892C184.94 94.6672 185.059 94.4028 185.059 94.301C185.078 94.3494 185.56 94.3494 185.913 94.4065C185.913 94.7566 186.066 94.8896 186.704 95.0955C186.971 95.1816 187.839 95.6243 188.633 96.0791C189.884 96.7957 192.445 97.9004 193.085 98.1213C193.173 98.0991 193.8 98.2197 194.243 98.3447C194.439 98.3997 194.441 98.4341 194.271 98.7627C194.041 99.2083 193.758 99.2188 192.89 98.8147C192.53 98.6475 192.147 98.5107 192.038 98.5107C191.772 98.5107 190.217 97.9136 189.758 97.6353C189.557 97.5132 189.296 97.4128 189.178 97.4126C188.741 97.4116 185.059 95.7605 185.059 95.5657C185.059 95.2627 184.77 95.5288 184.545 96.0388C184.405 96.3577 183.829 97.2969 183.266 98.126C182.448 99.3291 182.27 99.668 182.383 99.8044C182.461 99.8984 182.56 99.9753 182.602 99.9751C182.752 99.9741 183.822 98.5547 184.441 97.5342C184.788 96.9634 185.112 96.4556 185.162 96.4055C185.281 96.2861 186.807 97.0825 186.75 97.2344C186.702 97.3633 186.154 97.3604 185.649 97.2285C185.384 97.1592 185.286 97.2014 185.119 97.4563C185.007 97.6284 184.884 97.9951 184.847 98.2715C184.792 98.687 184.74 98.7639 184.552 98.7148C184.391 98.6726 184.194 98.8145 183.879 99.1987C183.402 99.7813 183.416 99.8445 184.082 100.101C184.925 100.425 185.072 100.576 184.987 101.029C185.605 102.134 184.345 101.244 184.448 101.148C184.448 100.958 183.951 100.794 183.685 100.896C183.428 100.995 182.348 100.723 182.098 100.497C181.967 100.378 181.838 100.344 181.779 100.412C181.724 100.474 181.445 100.784 181.16 101.101C180.672 101.642 179.932 103.161 179.932 103.621C179.932 103.838 178.867 105.348 178.156 106.139C177.728 106.615 177.723 106.629 177.958 106.82C178.09 106.927 178.602 107.134 179.096 107.282C179.589 107.429 180.283 107.693 180.637 107.869C180.992 108.044 181.298 108.167 181.319 108.141C181.34 108.115 181.533 107.833 181.748 107.515C182.081 107.022 182.447 106.689 182.656 106.689C182.686 106.689 182.74 106.799 182.775 106.934C182.868 107.292 183.209 107.231 183.447 106.812C183.727 106.32 183.834 106.351 183.858 106.934C183.87 107.202 183.883 107.518 183.889 107.635C183.897 107.812 183.751 107.864 183.047 107.933C182.211 108.016 182.185 108.029 181.663 108.635C181.37 108.975 181.039 109.251 180.928 109.25C180.816 109.248 180.312 109.062 179.806 108.836Z" fill="white" stroke="white" stroke-width="0.244141" stroke-linecap="round" stroke-linejoin="round"/>
<path d="M133.728 230.95C132.517 230.774 132.184 230.507 131.981 229.553C131.755 228.491 131.682 226.688 131.862 226.63C131.948 226.602 133.063 226.49 134.338 226.381C135.614 226.272 136.954 226.15 137.315 226.111L137.972 226.04L137.698 226.411C137.407 226.803 137.403 227.171 137.676 228.206C137.794 228.654 137.771 228.742 137.374 229.396C136.66 230.572 135.251 231.172 133.728 230.95Z" fill="#8A5130" stroke="#8A5130" stroke-width="0.244141" stroke-linecap="round" stroke-linejoin="round"/>
<path d="M178.955 106.48C178.441 106.387 178.442 106.266 178.967 105.682C179.366 105.237 179.506 105.15 179.623 106.154C179.968 106.499 179.725 106.618 178.955 106.48Z" fill="white" stroke="white" stroke-width="0.244141" stroke-linecap="round" stroke-linejoin="round"/>
<path d="M139.425 111.603C138.944 110.668 137.163 103.43 136.038 97.8394C136.011 97.7051 135.912 97.2107 135.816 96.7408C135.722 96.2708 135.477 95.0347 135.274 93.9942C135.07 92.9537 134.877 91.9649 134.844 91.7969C134.811 91.629 134.637 90.7776 134.457 89.9048C134.277 89.032 134.105 88.1807 134.075 88.0127C134.045 87.8448 133.917 87.2681 133.792 86.731C133.598 85.9048 133.392 84.8501 133.404 84.7496C133.406 84.7339 133.354 84.5418 133.289 84.3223C133.225 84.1028 132.984 83.0445 132.756 81.9703C131.568 76.3848 130.87 73.9625 130.01 72.4395C129.809 72.0818 129.691 71.7598 129.749 71.7237C129.988 71.5762 130.709 71.9563 131.194 72.4859C131.683 73.0184 131.831 73.3165 132.013 74.1373C132.076 74.4212 132.235 74.5469 132.909 74.8448C133.359 75.0437 133.845 75.2649 133.988 75.336C134.131 75.407 134.421 75.4273 134.631 75.3811C134.962 75.3084 135.073 75.356 135.452 75.7354C135.817 76.1004 135.876 76.2295 135.807 76.5083C135.761 76.6927 135.645 76.9302 135.55 77.0362C135.317 77.2935 135.324 77.9908 135.62 78.5523C135.46 78.4529 135.459 82.5074 135.62 85.8821C135.839 90.4937 136.079 92.4629 137.096 98.0191C137.434 99.8672 137.814 101.956 137.941 102.661C138.31 104.709 138.991 107.966 139.397 109.616C139.783 111.19 139.856 111.816 139.653 111.816C139.588 111.816 139.485 111.72 139.425 111.603Z" fill="#E2E6E6" stroke="#E2E6E6" stroke-width="0.244141" stroke-linecap="round" stroke-linejoin="round"/>
<path d="M182.383 99.8045C182.27 99.668 182.448 99.3291 183.266 98.126C183.829 97.2969 184.405 96.3577 184.545 96.0388C184.77 95.5288 185.059 95.2627 185.059 95.5657C185.059 95.7605 188.741 97.4116 189.178 97.4126C189.322 97.4131 189.263 97.4917 188.999 97.6528C188.783 97.7847 188.536 98.0042 188.451 98.1406C188.233 98.4883 188.132 98.4502 188.087 98.0044C188.047 97.6013 187.986 97.5479 187.195 97.2236C186.926 97.1138 186.378 96.8652 185.978 96.6714C185.576 96.4775 185.209 96.3589 185.16 96.4077C185.111 96.4565 184.788 96.9634 184.441 97.5342C183.822 98.5547 182.752 99.9741 182.602 99.9751C182.56 99.9753 182.461 99.8984 182.383 99.8045Z" fill="black" stroke="black" stroke-width="0.244141" stroke-linecap="round" stroke-linejoin="round"/>
<path d="M179.565 105.109C179.565 104.979 179.699 104.718 179.863 104.53C180.119 104.235 180.192 104.208 180.382 104.34C180.503 104.425 180.74 104.561 180.908 104.644C181.076 104.727 181.294 104.872 181.393 104.967C181.548 105.115 181.486 105.13 180.934 105.077C180.509 105.037 180.225 105.07 180.083 105.177C179.776 105.41 179.565 105.383 179.565 105.109Z" fill="#E2E6E6" stroke="#E2E6E6" stroke-width="0.244141" stroke-linecap="round" stroke-linejoin="round"/>
<path d="M139.668 143.745C139.59 143.111 139.526 142.534 139.526 142.463C139.526 142.376 140.233 142.343 141.693 142.361C143.684 142.385 143.73 142.39 142.263 142.425L140.666 142.463L140.721 143.421C140.771 144.277 140.749 144.407 140.518 144.639C140.375 144.781 140.158 144.897 140.034 144.897C139.842 144.897 139.789 144.731 139.668 143.745Z" fill="#1B795D" stroke="#1B795D" stroke-width="0.244141" stroke-linecap="round" stroke-linejoin="round"/>
<path d="M183.133 109.171C182.889 109.073 182.623 108.462 182.699 108.173C182.747 107.988 182.863 107.91 183.089 107.909C183.266 107.908 183.699 107.874 184.051 107.831C184.611 107.764 184.692 107.781 184.411 108.371C184.457 108.714 184.418 108.899 184.269 109.048C184.076 109.242 183.472 109.308 183.133 109.171Z" fill="#B55F3F" stroke="#B55F3F" stroke-width="0.244141" stroke-linecap="round" stroke-linejoin="round"/>
<path d="M185.999 108.032C186.061 107.295 186.043 107.178 185.872 107.178C185.756 107.178 185.545 107.43 185.367 107.781C185.129 108.252 185.007 108.374 184.815 108.337C184.486 108.274 184.326 108.167 184.326 108.01C185.18 108.24 184.6 107.258 184.355 107.788C183.955 107.788 183.843 107.582 183.84 106.842C183.837 106.349 183.716 106.339 183.447 106.812C183.207 107.234 182.868 107.291 182.773 106.927C182.77 106.449 181.706 107.124 181.885 107.143C181.885 107.286 181.64 107.716 181.317 108.141C181.298 108.166 180.991 108.044 180.637 107.869C180.283 107.693 179.589 107.429 179.095 107.282C178.602 107.134 178.09 106.926 177.958 106.82C177.723 106.629 177.727 106.615 178.156 106.139C178.867 105.348 179.932 103.838 179.932 103.621C179.932 103.161 180.672 101.642 181.16 101.101C181.445 100.784 181.724 100.474 181.779 100.412C181.838 100.344 181.967 100.378 182.098 100.497C182.348 100.723 183.428 100.995 183.685 100.896C183.915 100.808 184.448 100.948 184.5 101.685C184.238 101.731 184.132 101.825 184.102 102.041C183.819 102.432 183.819 103.026 184.03 103.251C184.16 103.14 184.461 103.012 184.7 102.967C185.183 102.878 185.373 103.016 185.702 103.794C185.62 103.736 185.554 103.498 185.555 103.266C185.556 103.034 185.546 102.762 185.533 102.661C185.416 101.787 185.772 101.435 186.232 101.969C186.571 102.364 186.645 102.375 186.645 102.03C186.645 101.884 186.737 101.664 186.802 101.288C186.737 101.468 186.279 101.495 186.279 101.318C185.281 100.871 185.281 100.871 185.059 100.771C185.059 100.588 184.688 100.334 184.082 100.101C183.416 99.8445 183.402 99.7812 183.879 99.1987C184.194 98.8144 184.391 98.6726 184.552 98.7148C184.74 98.7639 184.791 98.687 184.847 98.2715C184.941 97.5708 185.252 97.1255 185.588 97.2099C185.733 97.2466 186.223 97.3755 186.676 97.4968L187.499 97.7173L187.499 98.4192C187.5 98.8054 187.555 99.1211 187.622 99.1211C187.588 98.9719 187.15 100.53 187.245 100.554C187.085 100.974 187.193 101.223 187.514 101.174C187.816 101.129 188.93 99.2905 189.264 98.2847C189.469 97.668 189.715 97.4949 190.009 97.7617C190.172 97.9106 191.798 98.5107 192.038 98.5107C192.147 98.5107 192.53 98.6474 192.89 98.8147C193.758 99.2187 194.04 99.2082 194.271 98.7627C194.441 98.4341 194.438 98.3996 194.243 98.3447C193.8 98.2197 193.173 98.0991 192.855 97.9004C192.445 97.9004 189.884 96.7956 188.633 96.0791C187.839 95.6243 186.971 95.1816 186.704 95.0954C186.066 94.8896 185.913 94.7566 185.913 94.4065C185.913 94.0078 185.773 94.0439 185.5 94.5137C185.125 95.1582 185.116 94.6714 185.484 93.7317C186.111 92.1343 186.44 92.1264 190.471 93.6113C192.093 94.2085 193.915 94.876 194.519 95.0942C195.123 95.3125 195.768 95.5674 195.951 95.6601C196.393 95.884 196.698 96.4902 196.618 96.9841C196.545 97.4363 194.227 100.924 192.519 103.149C191.876 103.989 190.854 105.191 190.249 105.822C189.542 106.559 189.207 106.99 189.312 107.027C189.405 107.059 189.253 107.184 188.963 107.314C188.354 107.587 188.232 107.598 188.232 107.381C188.232 107.164 189.117 105.896 189.695 105.286C190.753 104.167 193.453 100.378 193.755 99.5869C193.815 99.4314 193.747 99.3625 193.477 99.3032C192.895 99.1753 192.644 99.3384 192.265 100.089C192.069 100.477 191.769 100.961 191.597 101.165C191.425 101.37 191.284 101.594 191.284 101.665C191.284 101.864 191.045 101.962 190.882 101.83C190.801 101.765 190.433 101.649 190.063 101.572C188.98 101.349 188.977 101.342 189.471 100.344L189.903 99.4748C189.654 99.2663 189.077 100.012 189.156 100.017C188.841 100.137 188.581 100.799 188.668 101.26C188.743 101.656 188.798 101.699 189.536 101.926C190.683 102.281 190.755 102.335 190.396 102.571C190.233 102.678 189.915 102.783 189.69 102.805C189.378 102.835 189.264 102.912 189.214 103.126C189.177 103.281 189.107 103.405 189.056 103.401C188.513 103.358 188.381 103.406 188.437 103.624C188.459 104.26 188.102 103.714 188.11 103.821C187.927 103.934 187.964 104.37 188.156 104.37C188.249 104.37 188.388 104.293 188.466 104.2C188.66 103.966 189.087 104.099 189.087 104.392C188.714 104.614 188.714 106.102 188.322 106.047C188.097 106.251 188.075 106.246 187.795 105.92C187.551 105.637 187.462 105.603 187.257 105.712C187.113 105.789 187.012 105.968 187.012 106.145C187.012 106.497 186.871 106.52 186.403 106.244C186.19 106.118 185.977 106.078 185.835 106.136C185.601 106.216 185.969 106.602 185.936 106.568C186.024 106.568 186.302 106.626 186.554 106.696C186.954 106.807 187.012 106.87 187.012 107.192C187.012 107.499 186.973 107.548 186.778 107.486C186.466 107.387 186.373 107.57 186.373 108.288C186.373 108.786 186.336 108.887 186.15 108.887C185.949 108.887 185.934 108.804 185.999 108.032ZM179.742 106.455C179.78 106.394 179.724 106.255 179.616 106.147C179.435 105.966 179.446 105.916 179.743 105.526C180.099 105.06 180.101 105.059 181.055 104.736C180.993 104.736 180.795 104.621 180.616 104.48C180.213 104.164 180.024 104.23 179.644 104.822C179.481 105.077 179.147 105.5 178.902 105.763C178.438 106.263 178.447 106.388 178.955 106.479C179.492 106.576 179.671 106.57 179.742 106.455ZM182.587 103.971C182.671 103.906 182.739 103.804 181.805 103.822C181.344 103.627 181.186 103.115 181.393 102.488C181.583 101.913 181.797 101.751 182.076 101.725C181.545 101.472 181.343 101.558 181.011 102.177C180.738 102.685 180.719 103.488 180.971 103.847C181.23 104.217 182.18 104.29 182.587 103.971Z" fill="black" stroke="black" stroke-width="0.244141" stroke-linecap="round" stroke-linejoin="round"/>
<path d="M181.551 104.149C181.316 104.126 181.081 104.004 180.971 103.847C180.719 103.488 180.738 102.685 181.011 102.177C181.343 101.558 181.545 101.472 182.117 101.922C181.878 101.794 181.811 101.811 181.622 102.043C181.336 102.396 181.228 103.011 181.38 103.413C181.466 103.639 181.659 103.787 182.029 103.91C182.493 104.064 182.52 104.092 182.251 104.136C182.083 104.164 181.768 104.17 181.551 104.149Z" fill="#BAC1B1" stroke="#BAC1B1" stroke-width="0.244141" stroke-linecap="round" stroke-linejoin="round"/>
<path d="M159.923 115.189C159.963 115.146 160.426 114.998 160.951 114.86C162.642 114.417 166.715 113.041 166.864 112.862C166.974 112.729 166.972 112.29 166.854 110.971C166.683 109.059 166.656 109.147 167.542 108.724C168.114 108.45 170.88 107.58 171.692 107.418C173.096 107.138 173.785 106.811 175.527 105.597C176.003 105.266 176.371 105.202 176.611 105.408C176.695 105.481 175.735 107.075 175.313 107.563C173.978 109.107 173.236 110.427 173.425 110.921C173.519 111.164 174.152 111.464 175.781 112.04C177.655 112.702 178.101 112.895 178.101 113.043C178.101 113.112 177.895 113.381 177.643 113.641C177.209 114.089 177.135 114.118 176.239 114.191C175.408 114.259 175.293 114.243 175.293 114.065C175.293 113.908 175.218 113.879 174.957 113.937C174.388 114.061 167.511 114.854 165.833 114.988C163.732 115.156 159.832 115.289 159.923 115.189Z" fill="#C6D9D3" stroke="#C6D9D3" stroke-width="0.244141" stroke-linecap="round" stroke-linejoin="round"/>
<path d="M180.54 97.5924C180.455 97.4901 180.357 97.4347 180.322 97.4693C180.287 97.5042 180.18 97.421 180.085 97.2843C179.857 96.9591 180.017 96.7662 180.679 96.5677C181.551 96.3067 181.733 96.7891 181.057 97.5648C180.828 97.8267 180.738 97.8316 180.54 97.5924Z" fill="#AE3828" stroke="#AE3828" stroke-width="0.244141" stroke-linecap="round" stroke-linejoin="round"/>
<path d="M184.854 110.147C184.323 110.039 184.271 109.795 184.644 109.163C184.834 108.843 185.14 108.266 185.324 107.88C185.536 107.434 185.734 107.178 185.865 107.178C186.045 107.178 186.061 107.284 185.999 108.032C185.934 108.804 185.949 108.887 186.15 108.887C186.336 108.887 186.373 108.786 186.373 108.288C186.373 107.57 186.466 107.387 186.778 107.486C186.972 107.548 187.012 107.499 187.012 107.198C187.012 106.905 186.941 106.811 186.515 106.319C186.883 106.516 187.012 106.471 187.012 106.144C187.012 105.968 187.113 105.789 187.257 105.712C187.462 105.602 187.551 105.637 187.795 105.92C188.069 106.239 188.101 106.247 188.312 106.059C188.511 105.881 188.854 105.779 189.114 105.821C189.162 105.829 188.983 106.146 188.717 106.527C188.048 107.481 188.095 107.788 188.843 107.361C189.3 107.099 189.323 107.133 189.054 107.676C188.914 107.959 188.675 108.224 188.499 108.291C188.33 108.355 187.932 108.598 187.615 108.83C187.299 109.063 186.979 109.253 186.904 109.253C186.876 109.334 186.401 109.599 186.46 109.615C186.598 109.839 185.359 110.249 184.854 110.147Z" fill="#E2E6E6" stroke="#E2E6E6" stroke-width="0.244141" stroke-linecap="round" stroke-linejoin="round"/>
<path d="M187.189 101.043C187.12 100.862 187.328 100.207 187.489 100.1C187.633 100.004 187.746 99.1212 187.614 99.1212C187.552 99.1212 187.5 98.7987 187.5 98.4044V97.6876L186.981 97.6036C186.824 97.5018 186.824 96.953 186.803 97.046C186.855 97.046 187.556 97.3609 187.866 97.5238C188.098 97.6456 188.166 98.1783 187.991 98.505C187.76 98.9371 188.072 98.7784 188.338 98.3287C188.628 97.8365 189.275 97.3985 189.554 97.5054C189.669 97.5496 189.69 97.5977 189.607 97.6256C189.53 97.6509 189.375 97.9512 189.261 98.2925C188.929 99.2921 187.815 101.129 187.514 101.174C187.371 101.196 187.225 101.137 187.189 101.043Z" fill="#E2E6E6" stroke="#E2E6E6" stroke-width="0.244141" stroke-linecap="round" stroke-linejoin="round"/>
<path d="M188.843 105.58C188.843 105.452 188.898 105.347 188.965 105.347C188.665 104.247 189.436 104.433 189.46 104.107C189.391 104.084 189.32 103.79 189.302 103.455L189.27 102.844L189.685 102.805C189.913 102.783 190.233 102.678 190.396 102.571C190.755 102.335 190.683 102.281 189.536 101.926C188.798 101.699 188.743 101.656 188.668 101.26C188.545 100.604 189.054 99.7902 189.439 100.028C189.512 100.073 189.462 100.322 189.31 100.665C189.018 101.326 189.049 101.363 190.063 101.572C190.433 101.649 190.801 101.765 190.882 101.83C191.045 101.962 191.284 101.864 191.284 101.664C191.284 101.594 191.425 101.37 191.597 101.165C191.768 100.961 192.069 100.476 192.265 100.089C192.644 99.3383 192.895 99.1752 193.477 99.3031C193.896 99.3954 193.888 99.436 193.2 100.58C192.607 101.566 190.098 104.911 189.584 105.401C189.131 105.833 188.843 105.902 188.843 105.58Z" fill="white" stroke="white" stroke-width="0.244141" stroke-linecap="round" stroke-linejoin="round"/>
<path d="M39.4898 99.075C33.2446 93.6919 27.6521 85.6848 25.4966 79.0405C24.5059 75.9863 23.9302 72.2903 23.927 68.9605C23.9214 63.3516 25.7559 57.3872 29.1799 51.8804C31.239 48.5688 34.4766 44.5605 38.8906 39.8574C42.1782 36.3545 54.6348 24.1733 54.9321 24.1704C54.9658 24.1702 55.1226 24.5408 55.2805 24.9939C55.6275 25.9897 56.2144 27.4739 58.3936 32.8662C62.552 43.1558 65.3345 51.3481 66.8828 57.8613C67.366 59.8945 68.1907 64.2991 68.2905 65.3809L68.3706 66.2476L66.5181 68.2495C61.5305 73.6396 59.5613 75.812 57.7319 77.9419C56.6362 79.2175 55.429 80.6182 55.0493 81.0547C51.3301 85.3286 45.0032 93.9351 41.7005 99.2127C41.3118 99.8337 40.9849 100.341 40.9741 100.34C40.9634 100.339 40.2954 99.7695 39.4898 99.075Z" fill="#C6D9D3" stroke="#C6D9D3" stroke-width="0.244141" stroke-linecap="round" stroke-linejoin="round"/>
<path d="M178.375 102.066C178.077 101.745 178.039 101.615 178.214 101.507C177.979 101.104 178.999 101.104 179.068 101.141C179.233 101.039 179.689 101.509 179.684 101.776C179.672 102.427 178.876 102.603 178.375 102.066Z" fill="#B55F3F" stroke="#B55F3F" stroke-width="0.244141" stroke-linecap="round" stroke-linejoin="round"/>
<path d="M139.965 76.358C139.568 76.1949 139.027 75.8526 138.764 75.5977C138.062 74.92 136.839 73.4263 136.199 72.4654L135.641 71.6275L135.305 72.1597C134.745 73.0464 134.248 74.2073 134.184 74.7811C134.114 75.4036 134.136 75.4029 132.848 74.8235C132.235 74.5479 132.075 74.4166 132.013 74.1373C131.732 72.8746 131.067 72.0233 130.163 71.7708C129.535 71.5955 127.507 70.6399 127.402 70.47C127.367 70.4136 127.59 69.9566 127.897 69.4549C128.557 68.377 129.351 66.5372 129.466 65.8206C129.51 65.5411 129.631 65.2427 129.734 65.1573C129.872 65.0425 130.612 65.0025 132.587 65.0025C134.875 65.0025 135.254 64.9766 135.156 64.087C134.831 64.087 134.062 63.0396 133.832 62.2828C133.631 61.6202 133.545 60.4395 133.69 60.3492C133.745 60.3157 133.789 60.1531 133.789 59.9879C133.789 59.5377 134.677 58.6526 135.57 58.2132C136.747 57.6334 137.551 57.7327 138.331 58.5543C138.828 59.0772 139.053 59.8504 139.127 61.2969L139.193 62.5965L140.123 61.9703C140.634 61.626 141.808 60.9737 142.731 60.5208C144.471 59.6673 145.36 59.0003 145.631 58.3467C145.714 58.147 145.809 57.9835 145.843 57.9835C145.876 57.9835 146.112 58.2193 146.365 58.5074C146.878 59.0901 147.831 59.6004 150.276 60.6026L151.81 61.2315L151.537 62.5064C151.163 64.2579 150.452 66.1714 149.296 68.5425C147.37 72.4925 144.247 75.8941 142.014 76.4756C141.07 76.7217 140.814 76.7071 139.965 76.358Z" fill="#8A5130" stroke="#8A5130" stroke-width="0.244141" stroke-linecap="round" stroke-linejoin="round"/>
<path d="M143.066 236.989C142.831 236.969 141.101 236.893 139.221 236.82C132.284 236.549 130.228 236.435 129.954 236.311C129.698 236.194 129.668 236.081 129.6 234.966C129.531 233.834 129.556 233.634 129.953 232.142C130.451 230.273 130.648 229.981 131.407 229.981C131.803 229.981 131.984 230.056 132.246 230.329C133.078 231.198 135.151 231.203 136.548 230.339C136.771 230.201 137.15 229.765 137.39 229.37C137.63 228.975 137.933 228.618 138.063 228.576C138.451 228.453 139.737 228.875 139.946 229.193C140.047 229.347 140.238 229.508 140.369 229.55C140.501 229.592 141.45 230.121 142.478 230.725C145.078 232.254 146.092 232.728 147.652 233.146C149.585 233.663 150.396 233.992 150.848 234.444C151.214 234.809 151.245 234.9 151.245 235.631C151.245 236.229 151.188 236.494 151.012 236.712L150.779 237L147.136 237.012C145.133 237.019 143.301 237.008 143.066 236.989Z" fill="#E8EAEB" stroke="#E8EAEB" stroke-width="0.244141" stroke-linecap="round" stroke-linejoin="round"/>
<path d="M138.551 223.416C138.551 223.233 138.604 222.617 138.669 222.046C138.892 220.072 139.797 206.459 140.438 195.435C140.538 193.723 140.648 191.965 140.684 191.528C140.72 191.092 140.87 188.263 141.017 185.242C141.249 180.473 141.285 178.264 141.29 168.498C141.293 162.31 141.312 157.262 141.33 157.281C141.349 157.299 141.74 158.407 142.198 159.743C142.657 161.078 143.511 163.544 144.095 165.222C148.023 176.512 150.148 186.228 150.505 194.539C150.75 200.246 150.015 205.579 148.333 210.293C147.417 212.859 145.919 215.95 144.746 217.695C143.804 219.097 141.288 221.69 139.74 222.854C138.583 223.724 138.55 223.739 138.551 223.416Z" fill="#ADC8BF" stroke="#ADC8BF" stroke-width="0.244141" stroke-linecap="round" stroke-linejoin="round"/>
<path d="M92.3993 231.735C88.8932 225.512 88.4604 224.848 87.579 224.351C87.2133 224.145 86.8798 223.92 86.8383 223.853C86.7968 223.786 87.0605 223.42 87.4252 223.041C87.7895 222.662 88.3515 222.033 88.6742 221.645C89.1698 221.047 89.2819 220.967 89.3993 221.124C89.6542 221.466 94.5849 223.249 97.4936 224.049C102.031 225.299 108.175 226.331 112.61 226.587C114.909 226.72 115.165 226.712 117.004 226.456C122.69 225.663 125.474 225.068 128.176 224.069C129.007 223.762 129.722 223.552 129.764 223.602C129.806 223.652 129.965 224.271 130.118 224.976C130.27 225.681 130.436 226.34 130.487 226.44C130.544 226.554 130.794 226.638 131.146 226.661C131.581 226.69 131.715 226.746 131.719 226.905C131.733 227.452 131.954 229.582 132.019 229.797C132.086 230.022 132.044 230.038 131.506 230.001C130.738 229.949 130.471 230.229 130.137 231.438C129.998 231.937 129.828 232.403 129.758 232.473C129.673 232.558 126.671 232.61 120.632 232.63C108.181 232.671 96.9574 232.774 94.8485 232.864L93.0785 232.941L92.3993 231.735Z" fill="#549D7B" stroke="#549D7B" stroke-width="0.244141" stroke-linecap="round" stroke-linejoin="round"/>
<path d="M87.036 238.518C85.3241 238.468 82.1105 238.354 79.8949 238.266C77.6794 238.176 75.6469 238.109 75.3783 238.116C75.1098 238.123 74.2309 238.082 73.4252 238.025C72.6195 237.969 71.3561 237.892 70.6176 237.855C65.4914 237.598 61.1833 237.254 59.0209 236.931C56.0634 236.489 54.1864 236.044 54.4018 235.836C54.6318 235.613 58.4965 235.025 60.4247 234.919C60.7939 234.898 61.1786 234.854 61.2792 234.821C61.3798 234.787 61.8468 234.729 62.3168 234.691C62.7868 234.653 63.4482 234.589 63.7865 234.547C64.2597 234.488 64.4374 234.514 64.5575 234.659C64.6972 234.827 64.7367 234.824 64.9328 234.628C65.1601 234.4 65.6967 234.349 69.519 234.188C70.3246 234.154 72.0275 234.073 73.3031 234.008C74.5788 233.942 77.4862 233.83 79.7641 233.759C82.0421 233.688 83.9533 233.601 84.7199 233.669C84.915 233.547 85.2148 233.699 86.8158 234.731C88.6156 235.892 92.1806 237.77 93.4447 238.225C93.7804 238.345 94.1073 238.489 94.1711 238.545C94.3029 238.661 91.5932 238.651 87.036 238.518Z" fill="#84A99F" stroke="#84A99F" stroke-width="0.244141" stroke-linecap="round" stroke-linejoin="round"/>
</svg>
