<svg width="42" height="42" viewBox="0 0 42 42" fill="none" xmlns="http://www.w3.org/2000/svg">
<path d="M21 31.5C16.303 31.5 12.0155 32.1615 8.74998 33.25M31.5 22.75C32.5931 22.7496 33.6708 22.4933 34.647 22.0014C35.6232 21.5096 36.4707 20.7961 37.1215 19.9179C37.7723 19.0397 38.2084 18.0212 38.3949 16.9442C38.5814 15.8671 38.513 14.7614 38.1953 13.7155C37.8777 12.6696 37.3194 11.7127 36.5654 10.9213C35.8114 10.1299 34.8825 9.52613 33.8532 9.15828C32.8239 8.79043 31.7227 8.66875 30.6379 8.80298C29.5531 8.9372 28.5148 9.32361 27.6062 9.93125C27.1248 8.56352 26.2308 7.37893 25.0475 6.54095C23.8642 5.70297 22.45 5.25293 21 5.25293C19.55 5.25293 18.1358 5.70297 16.9525 6.54095C15.7692 7.37893 14.8751 8.56352 14.3937 9.93125C13.4851 9.32361 12.4468 8.9372 11.362 8.80298C10.2772 8.66875 9.17606 8.79043 8.14674 9.15828C7.11743 9.52613 6.18856 10.1299 5.43454 10.9213C4.68052 11.7127 4.12231 12.6696 3.80462 13.7155C3.48693 14.7614 3.41858 15.8671 3.60506 16.9442C3.79154 18.0212 4.22765 19.0397 4.87848 19.9179C5.5293 20.7961 6.37675 21.5096 7.35293 22.0014C8.32912 22.4933 9.40691 22.7496 10.5 22.75V32.375M36.75 32.375H26.25M36.75 32.375C36.75 33.6 33.2605 35.8907 32.375 36.75M36.75 32.375C36.75 31.15 33.2605 28.8592 32.375 28" stroke="#FFFCEB" stroke-width="2.625" stroke-linecap="round" stroke-linejoin="round"/>
</svg>
