<svg width="36" height="36" viewBox="0 0 36 36" fill="none" xmlns="http://www.w3.org/2000/svg">
<path d="M31.5 25.5C29.5109 25.5 27.6032 24.7098 26.1967 23.3033C24.7902 21.8968 24 19.9891 24 18C24 16.0109 24.7902 14.1032 26.1967 12.6967C27.6032 11.2902 29.5109 10.5 31.5 10.5" stroke="#b0d0cb" stroke-width="2.25" stroke-linecap="round"/>
<path d="M31.5 31.5C29.7272 31.5 27.9717 31.1508 26.3338 30.4724C24.6959 29.7939 23.2076 28.7995 21.9541 27.5459C20.7005 26.2923 19.7061 24.8041 19.0276 23.1662C18.3492 21.5283 18 19.7728 18 18C18 16.2272 18.3492 14.4717 19.0276 12.8338C19.7061 11.1959 20.7005 9.70765 21.9541 8.45406C23.2076 7.20047 24.6959 6.20606 26.3338 5.52763C27.9717 4.84919 29.7272 4.5 31.5 4.5" stroke="#b0d0cb" stroke-width="2.25" stroke-linecap="round"/>
<path d="M9 4.5V12M9 31.5V16.5M5.25 12H12.75M13.5 4.5V11.028C13.5 18.324 4.5 18.324 4.5 11.028V4.5" stroke="#b0d0cb" stroke-width="2.25" stroke-linecap="round" stroke-linejoin="round"/>
</svg>
