<svg width="18" height="18" viewBox="0 0 18 18" fill="none" xmlns="http://www.w3.org/2000/svg">
<path d="M7.87866 0H0.741521C0.331367 0 0 0.331367 0 0.741521V7.87866C0 7.98062 0.0834212 8.06404 0.18538 8.06404H7.87866C7.98062 8.06404 8.06404 7.98062 8.06404 7.87866V0.18538C8.06404 0.0834212 7.98062 0 7.87866 0ZM6.581 6.581H1.48304V1.48304H6.581V6.581ZM3.38319 4.86623H4.68085C4.78281 4.86623 4.86623 4.78281 4.86623 4.68085V3.38319C4.86623 3.28123 4.78281 3.19781 4.68085 3.19781H3.38319C3.28123 3.19781 3.19781 3.28123 3.19781 3.38319V4.68085C3.19781 4.78281 3.28123 4.86623 3.38319 4.86623ZM7.87866 9.73247H0.18538C0.0834212 9.73247 0 9.81589 0 9.91785V17.055C0 17.4651 0.331367 17.7965 0.741521 17.7965H7.87866C7.98062 17.7965 8.06404 17.7131 8.06404 17.6111V9.91785C8.06404 9.81589 7.98062 9.73247 7.87866 9.73247ZM6.581 16.3135H1.48304V11.2155H6.581V16.3135ZM3.38319 14.5987H4.68085C4.78281 14.5987 4.86623 14.5153 4.86623 14.4133V13.1157C4.86623 13.0137 4.78281 12.9303 4.68085 12.9303H3.38319C3.28123 12.9303 3.19781 13.0137 3.19781 13.1157V14.4133C3.19781 14.5153 3.28123 14.5987 3.38319 14.5987ZM17.055 0H9.91785C9.81589 0 9.73247 0.0834212 9.73247 0.18538V7.87866C9.73247 7.98062 9.81589 8.06404 9.91785 8.06404H17.6111C17.7131 8.06404 17.7965 7.98062 17.7965 7.87866V0.741521C17.7965 0.331367 17.4651 0 17.055 0ZM16.3135 6.581H11.2155V1.48304H16.3135V6.581ZM13.1157 4.86623H14.4133C14.5153 4.86623 14.5987 4.78281 14.5987 4.68085V3.38319C14.5987 3.28123 14.5153 3.19781 14.4133 3.19781H13.1157C13.0137 3.19781 12.9303 3.28123 12.9303 3.38319V4.68085C12.9303 4.78281 13.0137 4.86623 13.1157 4.86623ZM17.6111 9.73247H16.4989C16.3969 9.73247 16.3135 9.81589 16.3135 9.91785V13.023H14.506V9.91785C14.506 9.81589 14.4226 9.73247 14.3206 9.73247H9.91785C9.81589 9.73247 9.73247 9.81589 9.73247 9.91785V17.6111C9.73247 17.7131 9.81589 17.7965 9.91785 17.7965H11.0301C11.1321 17.7965 11.2155 17.7131 11.2155 17.6111V11.957H13.023V14.3206C13.023 14.4226 13.1064 14.506 13.2083 14.506H17.6111C17.7131 14.506 17.7965 14.4226 17.7965 14.3206V9.91785C17.7965 9.81589 17.7131 9.73247 17.6111 9.73247ZM14.3206 16.3135H13.2083C13.1064 16.3135 13.023 16.3969 13.023 16.4989V17.6111C13.023 17.7131 13.1064 17.7965 13.2083 17.7965H14.3206C14.4226 17.7965 14.506 17.7131 14.506 17.6111V16.4989C14.506 16.3969 14.4226 16.3135 14.3206 16.3135ZM17.6111 16.3135H16.4989C16.3969 16.3135 16.3135 16.3969 16.3135 16.4989V17.6111C16.3135 17.7131 16.3969 17.7965 16.4989 17.7965H17.6111C17.7131 17.7965 17.7965 17.7131 17.7965 17.6111V16.4989C17.7965 16.3969 17.7131 16.3135 17.6111 16.3135Z" fill="#FFFCEB"/>
</svg>
