<svg width="45" height="45" viewBox="0 0 45 45" fill="none" xmlns="http://www.w3.org/2000/svg">
<path fill-rule="evenodd" clip-rule="evenodd" d="M22.125 41.7917C32.9871 41.7917 41.7917 32.9871 41.7917 22.125C41.7917 11.2629 32.9871 2.45833 22.125 2.45833C11.2629 2.45833 2.45833 11.2629 2.45833 22.125C2.45833 32.9871 11.2629 41.7917 22.125 41.7917ZM22.125 44.25C34.3441 44.25 44.25 34.3441 44.25 22.125C44.25 9.90585 34.3441 0 22.125 0C9.90585 0 0 9.90585 0 22.125C0 34.3441 9.90585 44.25 22.125 44.25Z" fill="#8ABAB1"/>
<path fill-rule="evenodd" clip-rule="evenodd" d="M13.1459 27.0416C15.0573 31.7518 18.5789 34.4166 22.125 34.4166C25.6724 34.4166 29.1927 31.7518 31.1041 27.0416H13.1459ZM22.125 36.8749C17.1616 36.8749 12.8595 33.1284 10.7454 27.6562L10.6839 27.4976C10.1357 26.0337 11.3083 24.5833 12.8731 24.5833H31.3782C32.9429 24.5833 34.1167 26.0337 33.5661 27.4976L33.5059 27.6562C31.3905 33.1284 27.0884 36.8749 22.125 36.8749Z" fill="#8ABAB1"/>
<path d="M18.8087 20.2099C18.9684 19.7699 18.9205 19.2328 18.789 18.7435C18.63 18.1804 18.3765 17.6484 18.0392 17.1702C17.3251 16.1512 16.1414 15.2158 14.5422 15.147C12.8865 15.0782 11.65 16.1291 10.8879 17.244C10.5225 17.7809 10.2348 18.3669 10.0336 18.9845C9.85787 19.5327 9.76445 20.0932 9.82591 20.5418C9.84003 20.6441 9.8797 20.7412 9.94126 20.8241C10.0028 20.907 10.0843 20.9731 10.1781 21.0162C10.2719 21.0593 10.3751 21.0781 10.4781 21.0708C10.5811 21.0635 10.6806 21.0304 10.7674 20.9745C11.2591 20.6598 11.7741 20.2284 12.2511 19.8301C12.4674 19.6482 12.6776 19.4737 12.8718 19.32C13.5626 18.7743 14.1009 18.4633 14.5459 18.4412C14.97 18.4203 15.4592 18.6624 16.0762 19.1246C16.2975 19.2893 16.5113 19.4638 16.7326 19.6458L16.9723 19.8412C17.2722 20.0833 17.5918 20.3316 17.9138 20.5258C17.9915 20.5727 18.0786 20.6018 18.1688 20.611C18.2591 20.6202 18.3503 20.6093 18.4358 20.5791C18.5213 20.5489 18.5991 20.5001 18.6636 20.4363C18.7281 20.3725 18.7776 20.2952 18.8087 20.2099ZM25.3368 20.2099C25.177 19.7699 25.2261 19.2328 25.3577 18.7435C25.4953 18.2322 25.7498 17.6828 26.1074 17.1702C26.8204 16.1512 28.0053 15.2158 29.6044 15.147C31.2589 15.0782 32.4967 16.1291 33.2587 17.244C33.6447 17.8094 33.9323 18.4215 34.113 18.9845C34.2876 19.5327 34.381 20.0932 34.3195 20.5418C34.3053 20.6439 34.2656 20.7408 34.2041 20.8236C34.1427 20.9063 34.0614 20.9723 33.9677 21.0154C33.8741 21.0584 33.7711 21.0773 33.6682 21.0701C33.5654 21.063 33.466 21.0301 33.3792 20.9745C32.8875 20.6598 32.3713 20.2284 31.8956 19.8301C31.6909 19.6574 31.484 19.4873 31.2749 19.32C30.5828 18.7743 30.0457 18.4633 29.5995 18.4412C29.1767 18.4203 28.6862 18.6624 28.0704 19.1246C27.8492 19.2893 27.6353 19.4638 27.4141 19.6458L27.1731 19.8412C26.8755 20.0904 26.5613 20.3191 26.2328 20.5258C26.1551 20.5729 26.0679 20.6022 25.9775 20.6115C25.8871 20.6208 25.7958 20.61 25.7101 20.5798C25.6244 20.5496 25.5465 20.5007 25.4819 20.4368C25.4173 20.3728 25.3678 20.2954 25.3368 20.2099Z" fill="#8ABAB1"/>
</svg>
