<svg width="105" height="23" viewBox="0 0 105 23" fill="none" xmlns="http://www.w3.org/2000/svg">
<path d="M3.15083 22.0333L0.57948 0.881404H3.1363L4.66167 15.4669L4.74884 16.3095L4.90864 15.4378L7.46546 0.881404H9.80436L12.3757 15.4524L12.5355 16.3095L12.6227 15.4378L14.1481 0.881404H16.6903L14.119 22.0333H11.3733L8.80198 6.9829L8.6567 6.09673L8.4969 6.99743L5.91103 22.0333H3.15083ZM30.2444 22.0333C30.1378 21.8299 30.0507 21.5781 29.9829 21.2778C29.9248 20.9679 29.8812 20.6483 29.8521 20.319C29.581 20.5902 29.2759 20.8469 28.9369 21.089C28.6076 21.3311 28.2444 21.5442 27.8474 21.7282C27.4406 21.9122 27.0096 22.0575 26.5544 22.164C26.0992 22.2705 25.615 22.3238 25.1017 22.3238C24.2688 22.3238 23.5134 22.2028 22.8354 21.9606C22.1672 21.7185 21.6006 21.3892 21.1357 20.9728C20.6612 20.566 20.2931 20.0818 20.0316 19.52C19.7798 18.9486 19.6539 18.3336 19.6539 17.6751C19.6539 16.8131 19.8234 16.0577 20.1624 15.4088C20.511 14.7599 21.0001 14.2175 21.6296 13.7817C22.2592 13.3556 23.0146 13.036 23.8959 12.8229C24.7869 12.6098 25.7796 12.5033 26.874 12.5033H29.8086V11.2685C29.8086 10.7939 29.7214 10.3678 29.5471 9.99007C29.3727 9.61236 29.1258 9.28791 28.8062 9.01673C28.4866 8.75524 28.0943 8.55186 27.6295 8.40658C27.1743 8.26131 26.661 8.18867 26.0896 8.18867C25.5569 8.18867 25.0775 8.25647 24.6513 8.39206C24.2349 8.52765 23.8814 8.70682 23.5908 8.92957C23.3003 9.15232 23.0727 9.41866 22.9081 9.72858C22.7531 10.0288 22.6756 10.3436 22.6756 10.6729H19.9735C19.9832 10.1014 20.1285 9.53972 20.4093 8.98768C20.6999 8.43564 21.1163 7.93687 21.6587 7.49136C22.1914 7.05554 22.8403 6.70204 23.6054 6.43086C24.3802 6.15968 25.2567 6.02409 26.2348 6.02409C27.1258 6.02409 27.9539 6.13547 28.719 6.35822C29.4841 6.57129 30.1475 6.89574 30.7093 7.33156C31.2613 7.77707 31.6971 8.32911 32.0167 8.98768C32.3363 9.64625 32.4961 10.4162 32.4961 11.2975V18.6048C32.4961 19.1278 32.5446 19.6847 32.6414 20.2755C32.7383 20.8565 32.8738 21.365 33.0482 21.8008V22.0333H30.2444ZM25.4939 19.9849C26.0169 19.9849 26.506 19.9171 26.9612 19.7815C27.4164 19.6459 27.8328 19.4668 28.2106 19.244C28.5786 19.0213 28.8982 18.7694 29.1694 18.4886C29.4405 18.198 29.6536 17.8978 29.8086 17.5879V14.4064H27.3099C26.3801 14.4064 25.5666 14.4887 24.8693 14.6534C24.1816 14.8083 23.6344 15.0504 23.2277 15.3797C22.9371 15.6122 22.7144 15.8882 22.5594 16.2078C22.4141 16.5274 22.3415 16.8906 22.3415 17.2973C22.3415 17.6847 22.4044 18.0431 22.5303 18.3724C22.6659 18.7017 22.8645 18.9825 23.126 19.215C23.3875 19.4571 23.7167 19.6459 24.1138 19.7815C24.5109 19.9171 24.9709 19.9849 25.4939 19.9849ZM38.2054 6.31464H46.239V19.7089H51.3672V22.0333H38.2054V19.7089H43.5515V8.65355H38.2054V6.31464ZM43.2028 2.18887C43.2028 1.95643 43.2367 1.73852 43.3045 1.53514C43.382 1.33175 43.4982 1.15742 43.6532 1.01215C43.7791 0.886246 43.9389 0.789397 44.1326 0.721602C44.3359 0.644123 44.5635 0.605383 44.8153 0.605383C45.0672 0.605383 45.2899 0.644123 45.4836 0.721602C45.6773 0.789397 45.8371 0.886246 45.963 1.01215C46.118 1.14774 46.2342 1.31722 46.3117 1.52061C46.3891 1.72399 46.4279 1.94674 46.4279 2.18887C46.4279 2.62469 46.2923 2.98787 46.0211 3.27842C45.7499 3.56897 45.348 3.71424 44.8153 3.71424C44.273 3.71424 43.8662 3.56897 43.595 3.27842C43.3336 2.98787 43.2028 2.62469 43.2028 2.18887ZM62.0158 2.50847V6.31464H68.001V8.39206H62.0158V16.9342C62.0158 17.5443 62.0932 18.0479 62.2482 18.445C62.4032 18.8421 62.6162 19.1568 62.8874 19.3893C63.1586 19.6314 63.4685 19.8009 63.8171 19.8977C64.1755 19.9946 64.5532 20.043 64.9503 20.043C65.2408 20.043 65.5411 20.0285 65.851 19.9994C66.1609 19.9607 66.466 19.9171 66.7662 19.8687C67.0568 19.8203 67.3279 19.7718 67.5797 19.7234C67.8412 19.6653 68.0543 19.6169 68.2189 19.5781L68.5967 21.4812C68.3739 21.6168 68.1027 21.7379 67.7831 21.8444C67.4635 21.9413 67.1149 22.0236 66.7372 22.0914C66.3594 22.1689 65.9575 22.227 65.5314 22.2657C65.1149 22.3044 64.6985 22.3238 64.282 22.3238C63.5847 22.3238 62.931 22.227 62.3208 22.0333C61.7204 21.8299 61.1974 21.5103 60.7519 21.0745C60.3064 20.6483 59.9529 20.0963 59.6914 19.4183C59.4396 18.7307 59.3137 17.9026 59.3137 16.9342V8.39206H55.1879V6.31464H59.3137V2.50847H62.0158ZM80.4655 22.3238C79.3614 22.3238 78.3445 22.135 77.4148 21.7572C76.4947 21.3795 75.7054 20.8517 75.0468 20.1738C74.3882 19.4958 73.8749 18.692 73.5069 17.7622C73.1389 16.8325 72.9549 15.8204 72.9549 14.726V14.1158C72.9549 12.8471 73.1583 11.714 73.565 10.7164C73.9718 9.70921 74.5141 8.85693 75.1921 8.15962C75.8603 7.47199 76.6206 6.94416 77.4729 6.57614C78.3348 6.20811 79.2162 6.02409 80.1169 6.02409C81.25 6.02409 82.2379 6.22264 83.0805 6.61972C83.9327 7.00711 84.6397 7.54463 85.2014 8.23226C85.7632 8.92957 86.1796 9.74795 86.4508 10.6874C86.7317 11.6268 86.8721 12.6437 86.8721 13.7381V14.9439H75.6424V15.0456C75.7102 15.8107 75.8603 16.4838 76.0928 17.0649C76.3349 17.646 76.6642 18.1593 77.0806 18.6048C77.5068 19.0794 78.0201 19.4522 78.6205 19.7234C79.221 19.9946 79.8844 20.1302 80.6108 20.1302C81.5696 20.1302 82.4219 19.9365 83.1676 19.5491C83.9134 19.1617 84.5332 18.6484 85.0271 18.0092L86.6687 19.2876C86.1457 20.0818 85.3613 20.7888 84.3153 21.4086C83.279 22.0187 81.9957 22.3238 80.4655 22.3238ZM80.1169 8.23226C79.5745 8.23226 79.0612 8.33395 78.577 8.53733C78.0927 8.73103 77.6569 9.01673 77.2695 9.39445C76.8821 9.78184 76.5528 10.2564 76.2816 10.8181C76.0201 11.3702 75.8361 12.0094 75.7296 12.7357H84.1845V12.605C84.1845 12.1208 84.0925 11.6026 83.9085 11.0506C83.7245 10.4888 83.4678 10.0046 83.1386 9.59783C82.8093 9.19106 82.3928 8.86178 81.8892 8.60997C81.3953 8.35816 80.8045 8.23226 80.1169 8.23226ZM101.69 6.02409C102.184 6.02409 102.697 6.05799 103.23 6.12579C103.772 6.19358 104.179 6.28559 104.45 6.40181L104.087 9.03126C103.564 8.91504 103.065 8.83272 102.591 8.7843C102.126 8.72619 101.637 8.69713 101.123 8.69713C100.465 8.69713 99.8693 8.77945 99.3366 8.9441C98.8039 9.09906 98.339 9.33149 97.942 9.64141C97.5836 9.91259 97.2689 10.2467 96.9977 10.6438C96.7362 11.0312 96.5183 11.467 96.3439 11.9513V22.0333H93.6419V6.31464H96.1987L96.3149 8.42111L96.3294 8.81335C96.9686 7.95139 97.7337 7.27345 98.6247 6.77952C99.5254 6.2759 100.547 6.02409 101.69 6.02409Z" fill="white"/>
</svg>
