<svg width="125" height="37" viewBox="0 0 125 37" fill="none" xmlns="http://www.w3.org/2000/svg">
<path d="M3.1875 29.1782L1.11328 12.1157H3.17578L4.40625 23.8813L4.47656 24.561L4.60547 23.8579L6.66797 12.1157H8.55469L10.6289 23.8696L10.7578 24.561L10.8281 23.8579L12.0586 12.1157H14.1094L12.0352 29.1782H9.82031L7.74609 17.0376L7.62891 16.3228L7.5 17.0493L5.41406 29.1782H3.1875ZM25.043 29.1782C24.957 29.0142 24.8867 28.811 24.832 28.5688C24.7852 28.3188 24.75 28.061 24.7266 27.7954C24.5078 28.0142 24.2617 28.2212 23.9883 28.4165C23.7227 28.6118 23.4297 28.7837 23.1094 28.9321C22.7812 29.0806 22.4336 29.1978 22.0664 29.2837C21.6992 29.3696 21.3086 29.4126 20.8945 29.4126C20.2227 29.4126 19.6133 29.3149 19.0664 29.1196C18.5273 28.9243 18.0703 28.6587 17.6953 28.3228C17.3125 27.9946 17.0156 27.604 16.8047 27.1509C16.6016 26.6899 16.5 26.1938 16.5 25.6626C16.5 24.9673 16.6367 24.3579 16.9102 23.8345C17.1914 23.311 17.5859 22.8735 18.0938 22.522C18.6016 22.1782 19.2109 21.9204 19.9219 21.7485C20.6406 21.5767 21.4414 21.4907 22.3242 21.4907H24.6914V20.4946C24.6914 20.1118 24.6211 19.7681 24.4805 19.4634C24.3398 19.1587 24.1406 18.897 23.8828 18.6782C23.625 18.4673 23.3086 18.3032 22.9336 18.186C22.5664 18.0688 22.1523 18.0103 21.6914 18.0103C21.2617 18.0103 20.875 18.0649 20.5312 18.1743C20.1953 18.2837 19.9102 18.4282 19.6758 18.6079C19.4414 18.7876 19.2578 19.0024 19.125 19.2524C19 19.4946 18.9375 19.7485 18.9375 20.0142H16.7578C16.7656 19.5532 16.8828 19.1001 17.1094 18.6548C17.3438 18.2095 17.6797 17.8071 18.1172 17.4478C18.5469 17.0962 19.0703 16.811 19.6875 16.5923C20.3125 16.3735 21.0195 16.2642 21.8086 16.2642C22.5273 16.2642 23.1953 16.354 23.8125 16.5337C24.4297 16.7056 24.9648 16.9673 25.418 17.3188C25.8633 17.6782 26.2148 18.1235 26.4727 18.6548C26.7305 19.186 26.8594 19.8071 26.8594 20.5181V26.4126C26.8594 26.8345 26.8984 27.2837 26.9766 27.7603C27.0547 28.229 27.1641 28.6392 27.3047 28.9907V29.1782H25.043ZM21.2109 27.5259C21.6328 27.5259 22.0273 27.4712 22.3945 27.3618C22.7617 27.2524 23.0977 27.1079 23.4023 26.9282C23.6992 26.7485 23.957 26.5454 24.1758 26.3188C24.3945 26.0845 24.5664 25.8423 24.6914 25.5923V23.0259H22.6758C21.9258 23.0259 21.2695 23.0923 20.707 23.2251C20.1523 23.3501 19.7109 23.5454 19.3828 23.811C19.1484 23.9985 18.9688 24.2212 18.8438 24.479C18.7266 24.7368 18.668 25.0298 18.668 25.3579C18.668 25.6704 18.7188 25.9595 18.8203 26.2251C18.9297 26.4907 19.0898 26.7173 19.3008 26.9048C19.5117 27.1001 19.7773 27.2524 20.0977 27.3618C20.418 27.4712 20.7891 27.5259 21.2109 27.5259ZM31.4648 16.4985H37.9453V27.3032H42.082V29.1782H31.4648V27.3032H35.7773V18.3853H31.4648V16.4985ZM35.4961 13.1704C35.4961 12.9829 35.5234 12.8071 35.5781 12.6431C35.6406 12.479 35.7344 12.3384 35.8594 12.2212C35.9609 12.1196 36.0898 12.0415 36.2461 11.9868C36.4102 11.9243 36.5938 11.8931 36.7969 11.8931C37 11.8931 37.1797 11.9243 37.3359 11.9868C37.4922 12.0415 37.6211 12.1196 37.7227 12.2212C37.8477 12.3306 37.9414 12.4673 38.0039 12.6313C38.0664 12.7954 38.0977 12.9751 38.0977 13.1704C38.0977 13.522 37.9883 13.8149 37.7695 14.0493C37.5508 14.2837 37.2266 14.4009 36.7969 14.4009C36.3594 14.4009 36.0312 14.2837 35.8125 14.0493C35.6016 13.8149 35.4961 13.522 35.4961 13.1704ZM50.6719 13.4282V16.4985H55.5V18.1743H50.6719V25.0649C50.6719 25.5571 50.7344 25.9634 50.8594 26.2837C50.9844 26.604 51.1562 26.8579 51.375 27.0454C51.5938 27.2407 51.8438 27.3774 52.125 27.4556C52.4141 27.5337 52.7188 27.5728 53.0391 27.5728C53.2734 27.5728 53.5156 27.561 53.7656 27.5376C54.0156 27.5063 54.2617 27.4712 54.5039 27.4321C54.7383 27.3931 54.957 27.354 55.1602 27.3149C55.3711 27.2681 55.543 27.229 55.6758 27.1978L55.9805 28.7329C55.8008 28.8423 55.582 28.9399 55.3242 29.0259C55.0664 29.104 54.7852 29.1704 54.4805 29.2251C54.1758 29.2876 53.8516 29.3345 53.5078 29.3657C53.1719 29.397 52.8359 29.4126 52.5 29.4126C51.9375 29.4126 51.4102 29.3345 50.918 29.1782C50.4336 29.0142 50.0117 28.7563 49.6523 28.4048C49.293 28.061 49.0078 27.6157 48.7969 27.0688C48.5938 26.5142 48.4922 25.8462 48.4922 25.0649V18.1743H45.1641V16.4985H48.4922V13.4282H50.6719ZM65.5547 29.4126C64.6641 29.4126 63.8438 29.2603 63.0938 28.9556C62.3516 28.6509 61.7148 28.2251 61.1836 27.6782C60.6523 27.1313 60.2383 26.4829 59.9414 25.7329C59.6445 24.9829 59.4961 24.1665 59.4961 23.2837V22.7915C59.4961 21.7681 59.6602 20.854 59.9883 20.0493C60.3164 19.2368 60.7539 18.5493 61.3008 17.9868C61.8398 17.4321 62.4531 17.0063 63.1406 16.7095C63.8359 16.4126 64.5469 16.2642 65.2734 16.2642C66.1875 16.2642 66.9844 16.4243 67.6641 16.7446C68.3516 17.0571 68.9219 17.4907 69.375 18.0454C69.8281 18.6079 70.1641 19.2681 70.3828 20.0259C70.6094 20.7837 70.7227 21.604 70.7227 22.4868V23.4595H61.6641V23.5415C61.7188 24.1587 61.8398 24.7017 62.0273 25.1704C62.2227 25.6392 62.4883 26.0532 62.8242 26.4126C63.168 26.7954 63.582 27.0962 64.0664 27.3149C64.5508 27.5337 65.0859 27.6431 65.6719 27.6431C66.4453 27.6431 67.1328 27.4868 67.7344 27.1743C68.3359 26.8618 68.8359 26.4478 69.2344 25.9321L70.5586 26.9634C70.1367 27.604 69.5039 28.1743 68.6602 28.6743C67.8242 29.1665 66.7891 29.4126 65.5547 29.4126ZM65.2734 18.0454C64.8359 18.0454 64.4219 18.1274 64.0312 18.2915C63.6406 18.4478 63.2891 18.6782 62.9766 18.9829C62.6641 19.2954 62.3984 19.6782 62.1797 20.1313C61.9688 20.5767 61.8203 21.0923 61.7344 21.6782H68.5547V21.5728C68.5547 21.1821 68.4805 20.7642 68.332 20.3188C68.1836 19.8657 67.9766 19.4751 67.7109 19.147C67.4453 18.8188 67.1094 18.5532 66.7031 18.3501C66.3047 18.147 65.8281 18.0454 65.2734 18.0454ZM82.6758 16.2642C83.0742 16.2642 83.4883 16.2915 83.918 16.3462C84.3555 16.4009 84.6836 16.4751 84.9023 16.5688L84.6094 18.6899C84.1875 18.5962 83.7852 18.5298 83.4023 18.4907C83.0273 18.4438 82.6328 18.4204 82.2188 18.4204C81.6875 18.4204 81.207 18.4868 80.7773 18.6196C80.3477 18.7446 79.9727 18.9321 79.6523 19.1821C79.3633 19.4009 79.1094 19.6704 78.8906 19.9907C78.6797 20.3032 78.5039 20.6548 78.3633 21.0454V29.1782H76.1836V16.4985H78.2461L78.3398 18.1978L78.3516 18.5142C78.8672 17.8188 79.4844 17.272 80.2031 16.8735C80.9297 16.4673 81.7539 16.2642 82.6758 16.2642Z" fill="white"/>
<path d="M95.5 26.4282H120.5M96.75 26.4282L97.5263 29.5345C97.6614 30.0753 97.9735 30.5555 98.4129 30.8986C98.8523 31.2417 99.3938 31.4281 99.9513 31.4282H116.048C116.605 31.4281 117.146 31.2417 117.586 30.8986C118.025 30.5555 118.337 30.0753 118.473 29.5345L119.25 26.4282" stroke="white" stroke-width="1.5" stroke-linecap="round" stroke-linejoin="round"/>
<path d="M102.375 17.0532H103.625V18.3032H102.375V17.0532ZM107.375 13.3032H108.625V15.8032H107.375V13.3032ZM106.125 17.0532H108.625V19.5532H107.375V18.3032H106.125V17.0532ZM109.875 17.0532H111.125V18.3032H112.375V17.0532H113.625V18.3032H112.375V19.5532H113.625V22.0532H112.375V23.3032H111.125V22.0532H108.625V23.3032H107.375V20.8032H109.875V19.5532H111.125V18.3032H109.875V17.0532ZM112.375 22.0532V19.5532H111.125V22.0532H112.375ZM109.875 12.0532H113.625V15.8032H109.875V12.0532ZM111.125 13.3032V14.5532H112.375V13.3032H111.125ZM102.375 12.0532H106.125V15.8032H102.375V12.0532ZM103.625 13.3032V14.5532H104.875V13.3032H103.625ZM102.375 19.5532H106.125V23.3032H102.375V19.5532ZM103.625 20.8032V22.0532H104.875V20.8032H103.625Z" fill="white"/>
<path d="M119.809 3.80186L120.627 2.82707L119.191 1.62184C119.064 1.51529 118.984 1.36266 118.97 1.19753C118.955 1.0324 119.007 0.8683 119.114 0.74132C119.22 0.61434 119.373 0.534888 119.538 0.520441C119.703 0.505994 119.867 0.557736 119.994 0.664285L123.824 3.87822C123.951 3.98477 124.031 4.1374 124.045 4.30253C124.06 4.46766 124.008 4.63176 123.901 4.75874C123.795 4.88572 123.642 4.96518 123.477 4.97962C123.312 4.99407 123.148 4.94233 123.021 4.83578L121.584 3.63055L120.767 4.60534C121.63 5.44166 122.312 6.44695 122.77 7.55851C123.228 8.67007 123.452 9.86405 123.428 11.066C123.403 12.2679 123.132 13.4519 122.63 14.5443C122.128 15.6366 121.407 16.6139 120.51 17.415L107.238 6.27866C107.872 5.25684 108.709 4.37647 109.697 3.69247C110.686 3.00847 111.805 2.53553 112.984 2.30313C114.164 2.07073 115.379 2.08387 116.553 2.34173C117.727 2.59959 118.835 3.09664 119.809 3.80186ZM108.932 6.06835L120.423 15.7102C121.056 14.9557 121.535 14.0839 121.831 13.1445C122.127 12.2052 122.235 11.2168 122.149 10.2356C122.063 9.25442 121.785 8.29977 121.33 7.42614C120.876 6.55251 120.253 5.77701 119.499 5.14392C118.744 4.51083 117.872 4.03255 116.933 3.73638C115.994 3.44021 115.005 3.33195 114.024 3.41779C113.043 3.50363 112.088 3.78189 111.215 4.23667C110.341 4.69145 109.566 5.31386 108.932 6.06835Z" fill="white"/>
</svg>
